<?xml version="1.0" encoding="utf-8"?>
<!-- Generator: Adobe Illustrator 24.3.0, SVG Export Plug-In . SVG Version: 6.00 Build 0)  -->
<svg version="1.1" id="레이어_1" xmlns="http://www.w3.org/2000/svg" xmlns:xlink="http://www.w3.org/1999/xlink" x="0px"
	 y="0px" viewBox="0 0 60 60" style="enable-background:new 0 0 60 60;" xml:space="preserve">
<style type="text/css">
	.st0{fill:none;}
</style>
<rect x="-88.577" y="80.851" class="st0" width="73" height="89"/>
<g>
	<path d="M46.497,31.871c-0.07-7.591,6.246-11.236,6.523-11.406c-3.547-5.159-9.082-5.877-11.042-5.962
		c-4.71-0.471-9.194,2.757-11.574,2.757c-2.388,0-6.075-2.68-9.972-2.602c-5.142,0.069-9.863,2.965-12.508,7.514
		c-5.328,9.182-1.369,22.789,3.835,30.234c2.536,3.645,5.558,7.738,9.528,7.591c3.835-0.147,5.282-2.456,9.91-2.456
		c4.621,0,5.927,2.456,9.98,2.394c4.115-0.085,6.728-3.73,9.241-7.375c2.909-4.232,4.119-8.325,4.189-8.541
		C54.517,43.987,46.575,40.961,46.497,31.871z"/>
	<path d="M38.882,9.576C40.998,7.043,42.421,3.514,42.028,0c-3.038,0.116-6.721,2.015-8.895,4.541
		c-1.96,2.255-3.679,5.854-3.212,9.29C33.305,14.086,36.778,12.117,38.882,9.576z"/>
</g>
</svg>
