<?xml version="1.0" encoding="utf-8"?>
<!-- Generator: Adobe Illustrator 24.3.0, SVG Export Plug-In . SVG Version: 6.00 Build 0)  -->
<svg version="1.1" id="레이어_1" xmlns="http://www.w3.org/2000/svg" xmlns:xlink="http://www.w3.org/1999/xlink" x="0px"
	 y="0px" viewBox="0 0 20 20" style="enable-background:new 0 0 20 20;" xml:space="preserve">
<style type="text/css">
	.st0{fill:none;}
	.st1{fill:#0C76BB;}
	.st2{fill:#0C76BC;}
</style>
<rect x="-108.577" y="60.851" class="st0" width="73" height="89"/>
<g>
	<path class="st1" d="M10.899,11.445H9.114L8.739,4.29h2.535L10.899,11.445z M8.709,13.95c0-0.46,0.125-0.78,0.375-0.96
		c0.25-0.19,0.555-0.285,0.915-0.285c0.35,0,0.65,0.095,0.9,0.285c0.25,0.18,0.375,0.5,0.375,0.96c0,0.44-0.125,0.76-0.375,0.96
		c-0.25,0.19-0.55,0.285-0.9,0.285c-0.36,0-0.665-0.095-0.915-0.285C8.834,14.71,8.709,14.39,8.709,13.95z"/>
</g>
<g>
	<path class="st2" d="M10,20C4.486,20,0,15.514,0,10S4.486,0,10,0s10,4.486,10,10S15.514,20,10,20z M10,1.875
		C5.52,1.875,1.875,5.52,1.875,10S5.52,18.125,10,18.125S18.125,14.48,18.125,10S14.48,1.875,10,1.875z"/>
</g>
</svg>
