<?xml version="1.0" encoding="utf-8"?>
<!-- Generator: Adobe Illustrator 24.3.0, SVG Export Plug-In . SVG Version: 6.00 Build 0)  -->
<svg version="1.1" id="레이어_1" xmlns="http://www.w3.org/2000/svg" xmlns:xlink="http://www.w3.org/1999/xlink" x="0px"
	 y="0px" viewBox="0 0 20 20" style="enable-background:new 0 0 20 20;" xml:space="preserve">
<style type="text/css">
	.st0{fill:none;}
	.st1{fill:#FF0000;}
</style>
<rect x="-108.577" y="60.851" class="st0" width="73" height="89"/>
<g>
	<g>
		<path class="st1" d="M16.872,19.074H3.12c-1.128,0-2.138-0.583-2.702-1.56c-0.564-0.977-0.563-2.143,0.001-3.119L7.295,2.485
			c0.564-0.976,1.574-1.559,2.701-1.559c1.128,0,2.138,0.583,2.702,1.559l6.875,11.909c0.564,0.976,0.565,2.141,0.001,3.118
			C19.01,18.49,18,19.074,16.872,19.074z M8.768,3.336L1.892,15.246c-0.256,0.444-0.256,0.974,0,1.418s0.715,0.709,1.228,0.709
			h13.752c0.513,0,0.971-0.265,1.227-0.709c0.257-0.444,0.256-0.974,0-1.418L11.224,3.336C10.712,2.449,9.281,2.448,8.768,3.336
			L8.768,3.336z"/>
	</g>
	<g>
		<path class="st1" d="M10.82,12.569H9.2L8.86,6.077h2.3L10.82,12.569z M8.832,14.842c0-0.417,0.113-0.708,0.34-0.871
			c0.227-0.172,0.504-0.259,0.83-0.259c0.318,0,0.59,0.086,0.817,0.259c0.227,0.163,0.34,0.454,0.34,0.871
			c0,0.399-0.113,0.69-0.34,0.871c-0.227,0.172-0.499,0.259-0.817,0.259c-0.327,0-0.603-0.086-0.83-0.259
			C8.946,15.532,8.832,15.242,8.832,14.842z"/>
	</g>
</g>
</svg>
