<?xml version="1.0" encoding="utf-8"?>
<!-- Generator: Adobe Illustrator 24.3.0, SVG Export Plug-In . SVG Version: 6.00 Build 0)  -->
<svg version="1.1" xmlns="http://www.w3.org/2000/svg" xmlns:xlink="http://www.w3.org/1999/xlink" x="0px" y="0px"
	 viewBox="0 0 85.039 85.039" style="enable-background:new 0 0 85.039 85.039;" xml:space="preserve">
<style type="text/css">
	.st0{fill:#FFFFFF;}
	.st1{display:none;}
	.st2{display:inline;}
	.st3{fill:#333333;}
	.st4{display:inline;fill:#333333;}
	.st5{display:inline;fill:#FFFFFF;}
	.st6{fill:none;stroke:#333333;stroke-width:9.939;stroke-linecap:round;}
	.st7{display:inline;fill:none;stroke:#333333;stroke-width:9.939;}
	.st8{display:inline;fill:none;stroke:#323333;stroke-width:0.7187;stroke-miterlimit:10;}
	.st9{fill:none;stroke:#323333;stroke-width:1.2853;stroke-linecap:round;stroke-miterlimit:10;}
</style>
<g id="레이어_1">
	<circle class="st0" cx="42.52" cy="42.52" r="37.383"/>
	<g id="레이어_3">
	</g>
	<g id="레이어_1_1_" class="st1">
		<g class="st2">
			<path class="st3" d="M32.02,59.32c-2.7,0-4.9-2.2-4.9-4.9v-29.9h14.6c0.2,0,0.5,0,0.7,0.1c-0.1,0.2-0.2,0.4-0.2,0.6v4.4
				c0,1.9,1.5,3.5,3.4,3.5h4.8l0,0c0.3,0,0.6-0.1,0.8-0.3c0.1,0.3,0.2,0.6,0.2,0.9v8.9c0.4,0.1,0.8,0.2,1.2,0.3v-9.2
				c0-0.9-0.4-1.8-1.1-2.4l-0.2-0.2l-0.1-0.1l-7-6.6l0,0l-0.1-0.1c-0.6-0.6-1.5-0.9-2.4-0.9h-15.8v31.1c0,3.4,2.7,6.1,6.1,6.1h11.4
				c-0.5-0.4-0.9-0.8-1.3-1.2h-10.1V59.32z M50.52,31.92h-4.8c-1.3,0-2.3-1-2.3-2.3v-4.4l0.7,0.6L50.52,31.92L50.52,31.92z"/>
			<path class="st3" d="M58.92,60.82l-1.8-1.8l-0.9-0.9l-1.4-1.4c0.9-1.1,1.4-2.6,1.4-4.2c0-2.6-1.4-4.8-3.6-6
				c-0.4-0.2-0.8-0.4-1.2-0.5c-0.6-0.2-1.3-0.3-2-0.3c-3.7,0-6.8,3-6.8,6.8c0,3.3,2.3,6,5.4,6.6c0.5,0.1,0.9,0.1,1.4,0.1
				c0.3,0,0.6,0,0.9-0.1c1.4-0.2,2.6-0.8,3.6-1.7l2.3,2.3l1.8,1.8c0.1,0.1,0.3,0.2,0.4,0.2c0.2,0,0.3-0.1,0.4-0.2
				C59.12,61.42,59.12,61.02,58.92,60.82z M51.82,57.62c-0.6,0.3-1.2,0.5-1.9,0.5c-0.1,0-0.3,0-0.4,0c-3.1,0-5.6-2.5-5.6-5.6
				c0-3.1,2.5-5.6,5.6-5.6c0.7,0,1.4,0.1,2,0.4c0.4,0.2,0.8,0.4,1.2,0.6c1.4,1,2.4,2.7,2.4,4.6C55.02,54.72,53.72,56.72,51.82,57.62
				z"/>
		</g>
	</g>
	<g id="레이어_2_1_" class="st1">
		<g class="st2">
			<path class="st3" d="M33.32,45.32c-0.2-0.3-0.5-0.4-0.8-0.2c-0.3,0.2-0.4,0.5-0.2,0.8c0.4,0.8,1,1.6,1.7,2.3
				c0.1,0.1,0.3,0.2,0.4,0.2s0.3-0.1,0.4-0.2c0.2-0.2,0.2-0.6,0-0.8C34.22,46.82,33.72,46.12,33.32,45.32z"/>
			<path class="st3" d="M33.22,37.32c0.1-0.3,0-0.6-0.3-0.8c-0.3-0.1-0.6,0-0.8,0.3c-0.4,0.8-0.7,1.7-0.8,2.7
				c-0.1,0.3,0.2,0.6,0.5,0.7h0.1c0.3,0,0.5-0.2,0.6-0.5C32.52,38.82,32.82,38.02,33.22,37.32z"/>
			<path class="st3" d="M39.42,31.32c-0.9,0.2-1.8,0.5-2.7,0.9c-0.3,0.1-0.4,0.5-0.3,0.8c0.1,0.2,0.3,0.3,0.5,0.3
				c0.1,0,0.2,0,0.3-0.1c0.7-0.4,1.5-0.6,2.4-0.8c0.3-0.1,0.5-0.4,0.5-0.7C40.02,31.52,39.72,31.32,39.42,31.32z"/>
			<path class="st3" d="M45.82,32.32c-0.3-0.2-0.6,0-0.8,0.2c-0.2,0.3,0,0.6,0.2,0.8c0.7,0.4,1.4,0.9,2,1.5c0.1,0.1,0.3,0.2,0.4,0.2
				c0.2,0,0.3-0.1,0.4-0.2c0.2-0.2,0.2-0.6,0-0.8C47.42,33.32,46.62,32.82,45.82,32.32z"/>
			<path class="st3" d="M58.72,37.92c-1.6-8.5-8.9-14.6-17.6-14.6c-9.9,0-17.9,8-17.9,17.9c0,8.7,6.1,16,14.6,17.6
				c0.1,1.7,1.6,3,3.3,3c1.8,0,3.3-1.5,3.3-3.3c0-1.6-1.2-3-2.7-3.3v-4v-1.9v-6.8v-0.8h0.8h6.8h1.9h4c0.3,1.6,1.6,2.7,3.3,2.7
				c1.8,0,3.3-1.5,3.3-3.3C61.72,39.42,60.42,38.02,58.72,37.92z M43.32,58.52c0,1.2-1,2.2-2.2,2.2s-2.2-1-2.2-2.2s1-2.2,2.2-2.2
				S43.32,57.32,43.32,58.52z M49.22,40.62h-6.7h-2v1.9v6.8v0.7c-0.2,0-0.4,0-0.7-0.1c-0.3,0-0.6,0.2-0.7,0.5c0,0.3,0.2,0.6,0.5,0.7
				c0.3,0,0.6,0.1,0.8,0.1v4.1c-1.3,0.2-2.3,1.2-2.6,2.4c-7.7-1.6-13.4-8.4-13.4-16.5c0-9.2,7.5-16.7,16.7-16.7
				c8.1,0,14.9,5.6,16.4,13.5c-1.2,0.3-2.1,1.4-2.4,2.6h-4.1c0-0.3,0-0.6-0.1-0.8c0-0.3-0.3-0.5-0.7-0.5c-0.3,0-0.5,0.3-0.5,0.7
				c0,0.2,0.1,0.4,0.1,0.7L49.22,40.62L49.22,40.62z M58.42,43.32c-1.2,0-2.2-1-2.2-2.2s1-2.2,2.2-2.2s2.2,1,2.2,2.2
				C60.62,42.42,59.62,43.32,58.42,43.32z"/>
		</g>
	</g>
	<g id="레이어_4" class="st1">
		<g class="st2">
			<path class="st3" d="M56.32,40.52v-6.4c0-0.9-0.4-1.9-1.1-2.5l-0.2-0.2l-0.1-0.1l-7.3-6.9l0,0l-0.1-0.1c-0.7-0.6-1.5-1-2.4-1
				h-16.4v17.2c-2,0.1-3.6,1.7-3.6,3.8v6.4c0,2,1.6,3.7,3.6,3.7v1.1c0,3.4,2.8,6.3,6.3,6.3h15.1c3.4,0,6.3-2.8,6.3-6.3v-1.1
				c2-0.1,3.6-1.7,3.6-3.7v-6.4C59.92,42.22,58.32,40.62,56.32,40.52z M54.12,32.12C54.12,32.12,54.12,32.22,54.12,32.12
				c0,0.1,0,0.1,0,0.1l0,0h-4.9c-1.3,0-2.4-1.1-2.4-2.4v-4.5h-0.6h0.6L54.12,32.12z M58.72,50.62c0,1.4-1.1,2.5-2.4,2.6
				c-0.1,0-0.1,0-0.2,0h-1h-5.5c-0.4,0.4-0.7,0.8-1.2,1.2h6.6v1.1c0,2.8-2.3,5.1-5.1,5.1h-14.9c-2.8,0-5.1-2.3-5.1-5.1v-1.1h6.6
				c-0.4-0.4-0.8-0.7-1.2-1.2h-5.4h-1c-0.1,0-0.1,0-0.2,0c-1.4-0.1-2.4-1.2-2.4-2.6v-6.4c0-1.4,1.1-2.5,2.4-2.6c0.1,0,0.1,0,0.2,0h1
				h4.9c0.3-0.4,0.6-0.8,1-1.2h-5.9v-15.9h15.2c0.3,0,0.6,0,0.8,0.1c-0.1,0.2-0.2,0.4-0.2,0.7v4.5c0,2,1.6,3.6,3.5,3.6h4.9l0,0
				c0.3,0,0.6-0.1,0.8-0.3c0.1,0.3,0.2,0.6,0.2,1v6.4h-5.9c0.4,0.4,0.7,0.7,1,1.2h4.9h1c0.1,0,0.1,0,0.2,0c1.4,0.1,2.4,1.2,2.4,2.6
				V50.62z"/>
			<path class="st3" d="M46.42,41.62c-0.8-0.6-1.7-1-2.8-1.2c-0.4-0.1-0.7-0.1-1.1-0.1c-0.4,0-0.7,0-1.1,0.1c-1,0.2-2,0.6-2.8,1.2
				c-1.7,1.2-2.8,3.2-2.8,5.4c0,2.9,1.8,5.3,4.4,6.2c0.7,0.3,1.5,0.4,2.3,0.4s1.6-0.1,2.3-0.4c2.5-0.9,4.4-3.4,4.4-6.2
				C49.12,44.82,48.02,42.82,46.42,41.62z M42.52,52.52c-3,0-5.5-2.5-5.5-5.5c0-2.7,1.9-4.9,4.5-5.4c0.3-0.1,0.7-0.1,1-0.1
				s0.7,0,1,0.1c2.5,0.5,4.5,2.7,4.5,5.4C48.02,50.02,45.52,52.52,42.52,52.52z"/>
			<path class="st3" d="M42.42,49.52c-0.4,0-0.7,0.3-0.7,0.7c0,0.4,0.3,0.7,0.7,0.7c0.4,0,0.7-0.3,0.7-0.7S42.82,49.52,42.42,49.52z
				"/>
			<path class="st3" d="M42.62,43.52c-0.8,0-1.6,0.4-1.8,1c-0.1,0.3,0,0.6,0.3,0.7c0.2,0.1,0.5,0.2,0.8-0.1c0.2-0.2,0.4-0.4,0.7-0.4
				c0.5,0,0.7,0.2,0.7,0.7c0,0.4-0.4,0.8-0.8,1c-0.4,0.2-0.6,0.6-0.6,1.1v0.5c0,0.2,0.1,0.3,0.2,0.4c0.1,0.1,0.3,0.1,0.4,0.1
				c0.3,0,0.6-0.2,0.6-0.5v-0.4c0-0.2,0.1-0.4,0.4-0.5c0.6-0.3,1.3-1,1.3-1.8C44.62,44.22,43.92,43.52,42.62,43.52z"/>
		</g>
	</g>
	<g id="레이어_5" class="st1">
		<path class="st4" d="M61.22,23.32h-12.5h-12.4h-12.5c-0.3,0-0.5,0.3-0.5,0.6v12.4v12.4v12.4c0,0.3,0.3,0.6,0.6,0.6h12.4h12.4h12.4
			c0.3,0,0.6-0.3,0.6-0.6v-12.4v-12.4v-12.4C61.72,23.62,61.52,23.32,61.22,23.32z M24.42,36.92h11.3v11.3h-11.3V36.92z
			 M36.92,36.92h11.3v11.3h-11.3V36.92z M49.32,36.92h11.3v11.3h-11.3V36.92z M60.62,35.72h-11.3v-11.3h11.3V35.72z M48.12,35.72
			h-11.2v-11.3h11.3v11.3H48.12z M24.42,24.42h11.3v11.3h-11.3V24.42z M24.42,49.32h11.3v11.3h-11.3V49.32z M36.92,49.32h11.3v11.3
			h-11.3V49.32z M60.62,60.62h-11.3v-11.3h11.3V60.62z"/>
	</g>
	<g id="레이어_6" class="st1">
		<path class="st4" d="M41.62,31.82c0,2.1,1.7,3.9,3.9,3.9c2.1,0,3.9-1.7,3.9-3.9c0-2.1-1.7-3.9-3.9-3.9
			C43.32,28.02,41.62,29.72,41.62,31.82z M48.22,31.82c0,1.5-1.2,2.7-2.7,2.7s-2.7-1.2-2.7-2.7s1.2-2.7,2.7-2.7
			C46.92,29.12,48.22,30.32,48.22,31.82z"/>
		<path class="st4" d="M39.92,43.42l1.8-3c0.1-0.1,0.2-0.1,0.3-0.2c0.1,0,0.2,0,0.3,0.1l2,2.8l0.9-0.7l-2-2.7
			c-0.3-0.4-0.8-0.6-1.3-0.6s-0.9,0.3-1.2,0.7l-1.8,3c-0.1,0.2-0.3,0.2-0.3,0.2c-0.1,0-0.2,0-0.3-0.2l-6.3-8.6
			c-0.3-0.4-0.7-0.6-1.2-0.6s-0.9,0.3-1.2,0.6l-5.5,8.3v-18h25.4c2.1,0,3.8,1.7,3.8,3.8v9.6h1.2v-9.7c0-2.7-2.2-4.9-4.9-4.9h-26.7
			v26.5c0,2.7,2.2,4.9,4.9,4.9h7.5v-1.2h-7.5c-2.1,0-3.8-1.7-3.8-3.8v-5.2l6.5-9.5c0.1-0.1,0.2-0.1,0.2-0.1c0.1,0,0.2,0,0.2,0.1
			l6.3,8.6c0.3,0.4,0.8,0.7,1.3,0.6C39.12,44.22,39.62,43.92,39.92,43.42z"/>
		<path class="st4" d="M54.02,51.52c-0.2-0.3-0.6-0.5-1-0.6c-0.1,0-0.1,0-0.2,0c-0.4,0-0.8,0.2-1,0.4c-0.3,0.3-0.5,0.7-0.5,1.1
			c0,0.1,0,0.1,0,0.2c0,0.1,0,0.2,0.1,0.3c0.1,0.4,0.4,0.7,0.8,0.9c0.2,0.1,0.4,0.1,0.6,0.1s0.5-0.1,0.7-0.2l2.1,1.8
			c0.1,0.1,0.2,0.1,0.4,0.1s0.3-0.1,0.4-0.2c0.2-0.2,0.2-0.6-0.1-0.8l-2.1-1.8c0-0.1,0.1-0.3,0.1-0.5
			C54.32,52.12,54.22,51.82,54.02,51.52z"/>
		<path class="st4" d="M47.12,48.02h-6c-0.3,0-0.6,0.3-0.6,0.6s0.3,0.6,0.6,0.6h6c0.3,0,0.6-0.3,0.6-0.6
			C47.72,48.22,47.42,48.02,47.12,48.02z"/>
		<path class="st4" d="M41.82,51.62c0,0.3,0.3,0.6,0.6,0.6h6c0.3,0,0.6-0.3,0.6-0.6c0-0.3-0.3-0.6-0.6-0.6h-6
			C42.12,51.02,41.82,51.22,41.82,51.62z"/>
		<path class="st4" d="M45.72,54.72c0-0.1,0-0.1,0-0.2c0-0.3-0.3-0.6-0.6-0.6h-6c-0.3,0-0.6,0.3-0.6,0.6c0,0.1,0,0.1,0,0.2
			c0.1,0.2,0.3,0.4,0.5,0.4h6C45.42,55.12,45.62,55.02,45.72,54.72z"/>
		<path class="st4" d="M46.62,57.02h-3.8c-0.3,0-0.6,0.3-0.6,0.6s0.3,0.6,0.6,0.6h3.8c0.3,0,0.6-0.3,0.6-0.6
			C47.22,57.22,46.92,57.02,46.62,57.02z"/>
		<path class="st4" d="M54.32,43.32c-0.3,0-0.6-0.1-0.9-0.1v-0.6h0.8h0.1c0.4-0.1,0.8-0.4,0.8-0.9c0-0.4-0.3-0.8-0.8-0.9h-0.1h-1.1
			h-1.8c-0.5,0-0.9,0.4-0.9,0.9s0.4,0.9,0.9,0.9h0.8v0.6c-1.9,0.1-3.6,0.8-5.1,1.9c-0.3,0.2-0.6,0.5-0.9,0.8
			c-0.1,0.1-0.1,0.1-0.2,0.2c-0.2,0.2-0.2,0.6,0,0.8s0.6,0.2,0.8,0l0,0c0.3-0.3,0.6-0.5,0.9-0.8c1.4-1.1,3.2-1.7,5-1.7
			c0.1,0,0.2,0,0.3,0c0.4,0,0.8,0.1,1.2,0.1c3.8,0.7,6.6,4,6.6,8c0,4.5-3.6,8.1-8.1,8.1c-1.7,0-3.3-0.5-4.7-1.5
			c-0.3-0.2-0.6-0.1-0.8,0.1c-0.2,0.2-0.1,0.6,0.1,0.8c1.6,1.1,3.4,1.7,5.3,1.7c5.1,0,9.3-4.2,9.3-9.3
			C62.12,47.92,58.72,44.02,54.32,43.32z"/>
	</g>
	<g id="레이어_7" class="st1">
		<g class="st2">
			<path class="st0" d="M48.72,52.32c0,2.2-1.8,4-4,4h-16.2c-2.2,0-4-1.8-4-4v-7.8h8.5c-0.1-0.4-0.2-0.8-0.2-1.1h-8.3v-4h8.3v-1.1
				h-8.9c-0.3,0-0.6,0.3-0.6,0.6v13.5c0,2.8,2.3,5.1,5.1,5.1h16.2c2.8,0,5.1-2.3,5.1-5.1v-2.7h-1.1v2.6H48.72z"/>
			<path class="st0" d="M41.72,53.92c0.6,0.4,1.3,0.7,2,0.7c1.7,0,3.2-1.4,3.2-3.2c0-0.5-0.1-0.9-0.3-1.3c-0.5-1.1-1.6-1.8-2.9-1.8
				c-0.7,0-1.4,0.3-2,0.7c-0.6-0.4-1.3-0.7-2-0.7c-1.1,0-2,0.5-2.6,1.4c-0.4,0.5-0.6,1.1-0.6,1.8c0,1.7,1.4,3.2,3.2,3.2
				C40.52,54.62,41.22,54.32,41.72,53.92z M43.72,49.42c0.6,0,1.1,0.3,1.5,0.7c0.3,0.4,0.5,0.8,0.5,1.3c0,1.1-0.9,2-2,2
				c-0.4,0-0.9-0.1-1.2-0.4c0.3-0.5,0.4-1,0.4-1.6c0-0.5-0.1-0.9-0.3-1.3c0-0.1-0.1-0.2-0.1-0.3
				C42.82,49.52,43.22,49.42,43.72,49.42z M37.72,51.42c0-0.6,0.2-1.1,0.6-1.5c0.4-0.3,0.8-0.6,1.4-0.6c0.6,0,1.1,0.2,1.5,0.7l0,0
				c0.3,0.4,0.5,0.8,0.5,1.3s-0.2,0.9-0.5,1.3c-0.4,0.5-0.9,0.7-1.5,0.7C38.62,53.42,37.72,52.52,37.72,51.42z"/>
			<path class="st0" d="M56.62,27.72h-20.8c-0.3,0-0.6,0.3-0.6,0.6v5.7v4.2v1.1v2.5c0,0.5,0.1,1,0.2,1.5c0.1,0.4,0.3,0.8,0.5,1.1
				c0.9,1.5,2.5,2.5,4.4,2.5h8.3h1.1h3.6h3.2c2.8,0,5.2-2.3,5.2-5.2v-9C61.72,30.02,59.42,27.72,56.62,27.72z M60.62,41.82
				c0,2.2-1.8,4-4,4h-3.2h-3.6h-1.1h-8.3c-1.2,0-2.3-0.5-3-1.4c-0.3-0.3-0.5-0.7-0.7-1.1c-0.2-0.5-0.3-1-0.3-1.5v-2.5v-1.1v-4.2
				v-5.2h20.3c2.2,0,4,1.8,4,4v9H60.62z"/>
			<path class="st0" d="M39.72,39.32c0.3,0.3,0.7,0.4,1.2,0.4h4c0.4,0,0.7-0.1,1-0.2c0.2-0.1,0.4-0.3,0.5-0.4
				c0.1-0.2,0.1-0.3,0.1-0.5c0-0.4-0.1-0.9-0.5-1.4c-0.4-0.7-0.9-1.2-1.5-1.5c0.4-0.4,0.6-1,0.6-1.6c0-1.3-1-2.3-2.3-2.3
				s-2.3,1-2.3,2.3c0,0.6,0.2,1.2,0.6,1.6c-0.6,0.3-1.1,0.8-1.5,1.5c-0.2,0.4-0.4,0.7-0.4,1.1c-0.1,0.3,0,0.6,0.1,0.9
				C39.52,39.12,39.62,39.22,39.72,39.32z M42.92,32.82c0.6,0,1.1,0.5,1.1,1.1c0,0.6-0.5,1.1-1.1,1.1c-0.6,0-1.1-0.5-1.1-1.1
				C41.82,33.32,42.32,32.82,42.92,32.82z M40.82,37.72c0.5-0.9,1.3-1.4,2.2-1.4c0.8,0,1.6,0.5,2.2,1.4c0.1,0.2,0.2,0.4,0.2,0.5
				c0.1,0.2,0.1,0.3,0.1,0.3s-0.1,0.1-0.4,0.1h-4c-0.5-0.1-0.6-0.1-0.6-0.1s0-0.1,0.1-0.3C40.62,38.02,40.62,37.92,40.82,37.72z"/>
			<path class="st0" d="M57.52,41.62h-4.1h-3.9h-1.2h-8.8c-0.3,0-0.6,0.3-0.6,0.6c0,0.3,0.3,0.6,0.6,0.6h9.2h1.2h3.6h4
				c0.3,0,0.6-0.3,0.6-0.6C58.12,41.82,57.82,41.62,57.52,41.62z"/>
			<path class="st0" d="M57.52,37.92h-4.1h-3.3c-0.3,0-0.6,0.3-0.6,0.6c0,0.3,0.3,0.6,0.6,0.6h3.3h4.1c0.3,0,0.6-0.3,0.6-0.6
				C58.12,38.22,57.82,37.92,57.52,37.92z"/>
		</g>
	</g>
	<g id="레이어_8" class="st1">
		<path class="st5" d="M55.12,31.62l-7.7-7.3c-0.7-0.6-1.5-1-2.4-1h-16.3v32.2c0,3.4,2.8,6.2,6.2,6.2h15.1c3.4,0,6.2-2.8,6.2-6.2
			v-21.4C56.22,33.12,55.82,32.22,55.12,31.62z M46.82,25.32l7.3,6.9c0,0,0,0,0,0.1h-0.1h-4.9c-1.3,0-2.4-1.1-2.4-2.4L46.82,25.32
			L46.82,25.32z M45.02,24.42c0.3,0,0.6,0.1,0.8,0.1c-0.1,0.2-0.2,0.4-0.2,0.7v4.5c0,2,1.6,3.5,3.5,3.6h4.9l0,0
			c0.3,0,0.6-0.1,0.8-0.3c0.2,0.3,0.2,0.7,0.2,1v1.3h-25.2v-10.9H45.02L45.02,24.42z M50.02,60.62h-15.1c-2.8,0-5.1-2.3-5.1-5.1v-19
			h25.3v19C55.12,58.32,52.82,60.62,50.02,60.62z"/>
		<path class="st5" d="M32.92,31.92h0.1l0.1-0.1v-1.7h1.2c0.3,0,0.6-0.1,0.8-0.3c0.2-0.2,0.3-0.5,0.3-0.7c0-0.3-0.1-0.6-0.3-0.8
			c-0.2-0.2-0.5-0.3-0.8-0.3h-1.1c-0.2,0-0.3,0.1-0.4,0.2c-0.1,0.1-0.1,0.2-0.1,0.4v3.3c0,0.1,0,0.1,0,0.1
			C32.82,31.92,32.92,31.92,32.92,31.92z M33.12,28.52c0-0.1,0-0.1,0.1-0.2c0-0.1,0.1-0.1,0.2-0.1h1c0.3,0,0.5,0.1,0.6,0.2
			c0.1,0.1,0.2,0.3,0.2,0.6c0,0.2-0.1,0.4-0.2,0.5c-0.1,0.2-0.4,0.2-0.6,0.2h-1.2L33.12,28.52L33.12,28.52z"/>
		<path class="st5" d="M36.82,31.82h0.8c0.6,0,1-0.2,1.4-0.6c0.3-0.4,0.5-0.8,0.5-1.4c0-0.6-0.2-1-0.5-1.4c-0.3-0.4-0.8-0.6-1.4-0.6
			h-0.8c-0.2,0-0.3,0.1-0.4,0.2s-0.1,0.2-0.1,0.4v2.9c0,0.1,0,0.3,0.1,0.4S36.72,31.82,36.82,31.82z M36.62,28.52
			c0-0.1,0-0.1,0.1-0.2c0-0.1,0.1-0.1,0.2-0.1h0.7c0.5,0,0.8,0.2,1.1,0.5c0.3,0.3,0.4,0.7,0.4,1.2c0,0.5-0.1,0.9-0.4,1.2
			s-0.6,0.4-1.1,0.4h-0.7c-0.1,0-0.1,0-0.2-0.1c0,0-0.1-0.1-0.1-0.2V28.52z"/>
		<path class="st5" d="M40.52,31.92h0.1l0.1-0.1v-1.8h1.8c0.1,0,0.1,0,0.1,0v-0.1v-0.1h-0.1h-1.8v-1.3c0-0.1,0-0.1,0.1-0.2
			c0-0.1,0.1-0.1,0.2-0.1h1.8c0.1,0,0.1,0,0.1,0v-0.1v-0.1h-0.1h-1.8c-0.2,0-0.3,0.1-0.4,0.2c-0.1,0.1-0.1,0.2-0.1,0.4V31.92
			c0,0.1,0,0.1,0,0.1C40.42,31.92,40.52,31.92,40.52,31.92z"/>
		<path class="st5" d="M49.72,41.02h-6.1c-0.3,0-0.6,0.3-0.6,0.6s0.3,0.6,0.6,0.6h6.1c0.3,0,0.6-0.3,0.6-0.6
			C50.32,41.32,50.02,41.02,49.72,41.02z"/>
		<path class="st5" d="M49.72,45.12h-6.1c-0.3,0-0.6,0.3-0.6,0.6c0,0.3,0.3,0.6,0.6,0.6h6.1c0.3,0,0.6-0.3,0.6-0.6
			C50.32,45.42,50.02,45.12,49.72,45.12z"/>
		<path class="st5" d="M49.72,49.22h-14.5c-0.3,0-0.6,0.3-0.6,0.6c0,0.3,0.3,0.6,0.6,0.6h14.6c0.3,0,0.6-0.3,0.6-0.6
			C50.42,49.52,50.02,49.22,49.72,49.22z"/>
		<path class="st5" d="M44.12,53.22h-8.9c-0.3,0-0.6,0.3-0.6,0.6s0.3,0.6,0.6,0.6h8.9c0.3,0,0.6-0.3,0.6-0.6
			C44.72,53.52,44.42,53.22,44.12,53.22z"/>
		<path class="st5" d="M36.22,46.82h3.3c0.9,0,1.7-0.7,1.7-1.7v-3.2c0-0.9-0.7-1.7-1.7-1.7h-3.2c-0.9,0-1.7,0.7-1.7,1.7v3.2
			C34.62,46.02,35.32,46.82,36.22,46.82z"/>
	</g>
	<g id="레이어_9" class="st1">
		<path class="st5" d="M34.62,51.02h-2.5h-0.8c-0.1,0-0.2,0-0.3,0.1c-0.2,0.1-0.3,0.3-0.3,0.5s0.1,0.4,0.3,0.5
			c0.1,0.1,0.2,0.1,0.3,0.1h0.8h2.5c0.3,0,0.6-0.3,0.6-0.6C35.12,51.22,34.92,51.02,34.62,51.02z"/>
		<path class="st5" d="M37.72,56.42c1.7,0,3.2-0.9,4.1-2.2c0.2-0.3,0.4-0.7,0.5-1c0.2-0.5,0.3-1.1,0.3-1.6v-1.7v-2.1v-3.5v-1.4v-3.5
			l0,0v-0.1v-1l0,0v-0.1v-2.9v-0.1v-1v-0.1v-3.6c0-2.7-2.2-4.9-4.9-4.9h-14.4v26c0,2.7,2.2,4.8,4.8,4.8h3.1h1.2H37.72z M41.42,34.12
			v1v0.1v2.9v0.1l0,0v1v0.1l0,0v4.4v1.8v1.2h-0.6h-0.2h-0.9h-0.1h-7.5h-1.1h-4.9h-0.8h-0.9v-15.6h0.9h0.9h13.6h0.9h0.9v2.9v0.1
			H41.42z M24.42,26.72h13.2c1.9,0,3.5,1.4,3.7,3.2h-0.8h-0.9h-13.5h-0.8h-0.9V26.72z M31.02,55.32h-2.9c-2,0-3.7-1.7-3.7-3.7v-3.7
			h0.9h0.9h4.9h1.1h7.3h0.4h0.6h0.1h0.9v3.7c0,0.2,0,0.4,0,0.6c-0.1,0.5-0.2,0.9-0.4,1.3c-0.6,1.1-1.8,1.9-3.2,1.9h-5.8h-1.1V55.32z
			"/>
		<path class="st5" d="M57.22,38.32h-1.8v-0.6c0-2-1.6-3.6-3.6-3.6h-7.5v1v0.1h7.5c1.4,0,2.5,1.1,2.5,2.5v0.6h-10l0,0v1v0.1l0,0
			h11.1l0,0h1.8c1.9,0,3.5,1.6,3.5,3.5v12.1c0,1.9-1.5,3.5-3.5,3.5h-21.7c-0.4,0-0.8-0.1-1.2-0.2h-2c0.8,0.8,2,1.3,3.2,1.3h21.6
			c2.5,0,4.6-2,4.6-4.6v-12.2C61.72,40.32,59.72,38.32,57.22,38.32z"/>
		<path class="st5" d="M53.42,48.92c0-3.9-3.2-7.1-7.1-7.1c-0.7,0-1.4,0.1-2.1,0.3v1.2c0.7-0.2,1.4-0.4,2.1-0.4c3.3,0,6,2.7,6,6
			s-2.7,6-6,6c-0.9,0-1.8-0.2-2.6-0.6c-0.1,0.3-0.3,0.7-0.5,1c1,0.5,2,0.8,3.2,0.8C50.32,55.92,53.42,52.82,53.42,48.92z"/>
		<path class="st5" d="M50.32,48.92c0-2.2-1.8-3.9-3.9-3.9c-0.8,0-1.5,0.2-2.1,0.6v1.4c0.5-0.6,1.3-0.9,2.1-0.9
			c1.6,0,2.8,1.3,2.8,2.8c0,1.6-1.3,2.8-2.8,2.8c-0.8,0-1.6-0.4-2.1-0.9v0.8c0,0.2,0,0.4,0,0.6c0.6,0.4,1.3,0.6,2.1,0.6
			C48.52,52.82,50.32,51.02,50.32,48.92z"/>
		<path class="st5" d="M57.52,43.02c0.3,0,0.6-0.2,0.6-0.6c0-0.4-0.2-0.6-0.6-0.6h-1.8c-0.3,0-0.6,0.3-0.6,0.6
			c0,0.3,0.2,0.6,0.6,0.6H57.52z"/>
	</g>
	<g id="레이어_10" class="st1">
		<g class="st2">
			<path class="st0" d="M51.12,48.82c0.4,0,0.7-0.1,0.9-0.2c0.1-0.1,0.2-0.2,0.3-0.3c0.2-0.4,0.2-1-0.2-1.6
				c-0.1-0.2-0.3-0.4-0.5-0.6s-0.4-0.4-0.7-0.6c0.3-0.3,0.4-0.8,0.4-1.2c0-1-0.8-1.9-1.9-1.9c-1,0-1.9,0.8-1.9,1.9
				c0,0.5,0.2,0.9,0.5,1.2c-0.2,0.1-0.5,0.3-0.6,0.6c-0.2,0.2-0.3,0.4-0.4,0.6c-0.1,0.2-0.2,0.4-0.3,0.5c-0.2,0.4-0.1,0.8,0,1.1
				c0.2,0.4,0.6,0.6,1.2,0.6h3.2V48.82z M49.52,43.42c0.4,0,0.8,0.4,0.8,0.8c0,0.4-0.4,0.8-0.8,0.8c-0.4,0-0.8-0.4-0.8-0.8
				C48.72,43.82,49.12,43.42,49.52,43.42z M47.92,47.12L47.92,47.12c0.4-0.7,1-1,1.6-1.1l0,0c0.6,0,1.2,0.4,1.6,1l0,0
				c0.2,0.3,0.2,0.4,0.2,0.5c0,0-0.1,0-0.2,0h-3.1c-0.1,0-0.2,0-0.2,0C47.72,47.62,47.82,47.42,47.92,47.12z"/>
			<path class="st0" d="M30.32,46.62v4.3h-0.4c-2.4,0-4.4-2-4.4-4.4v-11.2h5.4h21.7h1c2,0,3.7,1.4,4.2,3.2l1.3,1.2l0,0
				c0-3-2.5-5.5-5.5-5.5h-0.4v-5.4c0-3-2.5-5.5-5.5-5.5h-16.8c-0.3,0-0.6,0.3-0.6,0.6v10.2h-5.3c-0.3,0-0.6,0.3-0.6,0.6v11.8
				c0,3,2.5,5.5,5.5,5.5h0.4v0.4c0,3,2.4,5.5,5.5,5.5h5.9v-1.1h-5.9c-2.4,0-4.3-1.9-4.3-4.3v-1v-4.3h10.3v-1.1h-10.9
				C30.62,46.02,30.32,46.22,30.32,46.62z M31.52,24.42h16.2c2.4,0,4.4,2,4.4,4.4v5.3h-20.6V24.42z"/>
			<path class="st0" d="M29.82,38.32c-0.3,0-0.6,0.3-0.6,0.6s0.3,0.6,0.6,0.6h5.7c0.3,0,0.6-0.2,0.6-0.6c0-0.3-0.3-0.6-0.6-0.6
				C35.52,38.32,29.82,38.32,29.82,38.32z"/>
			<path class="st0" d="M57.62,50.42L57.62,50.42h-2h-2.4h-1.1h-4.4c-0.3,0-0.5,0.2-0.5,0.5s0.2,0.5,0.5,0.5h4.4h1.1h2.8h1.6
				c0.3,0,0.5-0.2,0.5-0.5S57.92,50.42,57.62,50.42z"/>
			<path class="st0" d="M54.82,53.82h-1.8h-1.2h-4.1c-0.3,0-0.5,0.2-0.5,0.5s0.2,0.5,0.5,0.5h3.6h1.2h2.3c0.3,0,0.5-0.2,0.5-0.5
				C55.32,54.12,55.12,53.82,54.82,53.82z"/>
			<path class="st0" d="M59.92,44.22l-0.8-0.8l-1.1-1.1l-2.5-2.2c-0.4-0.4-1-0.6-1.5-0.6h-9.5v6.5v1.1v9.6v1.1v0.1
				c0,2.1,1.7,3.8,3.8,3.8h8.5c2.1,0,3.8-1.7,3.8-3.8v-12.1C60.62,45.22,60.42,44.62,59.92,44.22z M59.52,58.02
				c0,1.5-1.2,2.7-2.7,2.7h-8.5c-1.5,0-2.7-1.2-2.7-2.7v-0.1v-1.1v-9.6v-1.1v-5.4h8.4c0.3,0,0.6,0.1,0.8,0.3l3.1,3l1.1,1.1l0.1,0.1
				c0.2,0.2,0.3,0.5,0.3,0.8v12H59.52z"/>
		</g>
	</g>
	<g id="레이어_11" class="st1">
		<path class="st4" d="M62.02,48.32L62.02,48.32v-16.6c0-1.4-1.1-2.6-2.4-2.9v1.2c0.7,0.2,1.3,0.9,1.3,1.7v16h-36.7v-16
			c0-0.8,0.5-1.5,1.3-1.7v-1.2c-1.4,0.2-2.5,1.4-2.5,2.9v19.6c0,1.6,1.3,2.9,2.9,2.9h12.2v2.5h-1.3c-1.3,0-2.4,1.1-2.4,2.4v1.6
			c0,0.7,0.5,1.2,1.2,1.2h13.9c0.7,0,1.2-0.5,1.2-1.2v-1.6c0-1.3-1.1-2.4-2.4-2.4h-1.3v-2.5h12.2c1.6,0,2.9-1.3,2.9-2.9v-3
			C62.02,48.32,62.02,48.32,62.02,48.32z M49.52,59.12v1.6l0,0h-13.9v-1.6c0-0.7,0.6-1.3,1.3-1.3h1.9h7.6h1.9
			C48.92,57.82,49.52,58.42,49.52,59.12z M45.72,56.62h-6.4v-2.5h6.4V56.62z M59.12,53.02h-12.8h-7.6h-12.8c-1,0-1.7-0.8-1.7-1.7
			v-2.3h36.7v2.3C60.82,52.22,60.12,53.02,59.12,53.02z"/>
		<path class="st4" d="M45.72,50.32h-6.4c-0.3,0-0.6,0.3-0.6,0.6s0.3,0.6,0.6,0.6h6.4c0.3,0,0.6-0.3,0.6-0.6
			C46.32,50.62,46.02,50.32,45.72,50.32z"/>
		<path class="st4" d="M30.12,44.12h24.9c1,0,1.9-0.8,1.9-1.9v-9.2v-3v-1.2v-1.8v-1.8c0-1-0.8-1.9-1.9-1.9h-24.9
			c-1,0-1.9,0.8-1.9,1.9v1.9v1.8v1.2v3.1v9.2C28.22,43.32,29.02,44.12,30.12,44.12z M30.12,24.52h24.9c0.4,0,0.7,0.3,0.7,0.7v1.6
			h-26.3v-1.6C29.42,24.82,29.72,24.52,30.12,24.52z M29.42,30.02v-1.2v-0.8h26.3v0.8v1.2v3.1v9.2c0,0.4-0.3,0.7-0.7,0.7h-24.9
			c-0.4,0-0.7-0.3-0.7-0.7v-9.2V30.02L29.42,30.02z"/>
		<path class="st4" d="M31.42,35.02h10.7c0.5,0,1-0.4,1-1v-0.9v-3v-0.1c0-0.5-0.5-0.9-1-0.9h-10.7c-0.5,0-0.9,0.4-1,0.9v0.1v3v0.9
			C30.42,34.52,30.92,35.02,31.42,35.02z M31.62,30.22h10.3v2.8v0.7h-10.3v-0.7V30.22z"/>
		<path class="st4" d="M45.22,39.52h2h3.8h2.5c0.6,0,1.1-0.5,1.1-1.1v-5.4v-2.8c0-0.1,0-0.1,0-0.2c-0.1-0.5-0.6-0.9-1.1-0.9h-8.3
			c-0.5,0-1,0.4-1.1,0.9c0,0.1,0,0.1,0,0.2v2.9v5.4C44.12,39.02,44.62,39.52,45.22,39.52z M47.32,38.32c-0.2,0-0.3,0-0.4,0l0,0
			c0,0,0-0.3,0.3-0.7c0.5-0.8,1.2-1.3,2-1.3l0,0c0.8,0,1.5,0.5,2,1.3c0.3,0.5,0.3,0.7,0.3,0.7s-0.1,0.1-0.4,0.1h-3.8V38.32z
			 M48.12,34.12c0-0.6,0.5-1,1-1c0.6,0,1,0.5,1,1c0,0.6-0.5,1-1,1l0,0C48.62,35.12,48.12,34.62,48.12,34.12z M45.32,30.22h8.1v2.8
			v5.3h-0.8c0-0.4-0.1-0.8-0.4-1.4c-0.4-0.6-0.9-1.1-1.4-1.4c0.4-0.4,0.6-0.9,0.6-1.5c0-0.4-0.1-0.7-0.3-1c-0.4-0.7-1.1-1.2-1.9-1.2
			s-1.6,0.5-2,1.2c-0.2,0.3-0.3,0.7-0.3,1c0,0.6,0.2,1.1,0.6,1.5c-0.5,0.3-1,0.8-1.4,1.4c-0.3,0.5-0.5,1-0.4,1.4h-0.4v-5.3
			C45.32,33.02,45.32,30.22,45.32,30.22z"/>
		<path class="st4" d="M42.12,38.32h-10.7c-0.3,0-0.6,0.3-0.6,0.6s0.3,0.6,0.6,0.6h10.7c0.3,0,0.6-0.3,0.6-0.6
			C42.72,38.62,42.52,38.32,42.12,38.32z"/>
		<path class="st4" d="M42.12,40.62h-10.7c-0.3,0-0.6,0.3-0.6,0.6c0,0.3,0.3,0.6,0.6,0.6h10.7c0.3,0,0.6-0.3,0.6-0.6
			C42.72,40.92,42.52,40.62,42.12,40.62z"/>
		<path class="st4" d="M38.52,37.22c0.3,0,0.6-0.3,0.6-0.6s-0.3-0.6-0.6-0.6h-3c-0.3,0-0.6,0.3-0.6,0.6s0.3,0.6,0.6,0.6H38.52z"/>
		<path class="st4" d="M42.12,36.02h-1.9c-0.3,0-0.6,0.3-0.6,0.6s0.3,0.6,0.6,0.6h1.9c0.3,0,0.6-0.3,0.6-0.6
			S42.52,36.02,42.12,36.02z"/>
	</g>
	<g id="레이어_12" class="st1">
		<g class="st2">
			<path class="st3" d="M61.92,31.82L61.92,31.82v-4.4c0-1.4-1.2-2.6-2.6-2.6h-33.6c-1.4,0-2.6,1.2-2.6,2.6v24.6
				c0,1.4,1.2,2.6,2.6,2.6h14.1l-0.3-1.2h-13.8c-0.8,0-1.5-0.7-1.5-1.5v-19.5h36.5v19.6c0,0.8-0.7,1.5-1.5,1.5h-3.1l-1,1.2h4.1
				c1.4,0,2.6-1.2,2.6-2.6v-20.3H61.92z M24.32,31.22v-3.8c0-0.8,0.7-1.5,1.5-1.5h33.5c0.8,0,1.5,0.7,1.5,1.5v3.9h-36.5V31.22z"/>
			<path class="st3" d="M27.82,26.92c-0.9,0-1.7,0.7-1.7,1.6s0.7,1.6,1.6,1.6s1.6-0.7,1.6-1.6C29.42,27.62,28.72,26.92,27.82,26.92z
				 M27.82,29.02c-0.3,0-0.5-0.2-0.5-0.5c0-0.3,0.2-0.5,0.5-0.5c0.3,0,0.5,0.2,0.5,0.5C28.22,28.82,28.02,29.02,27.82,29.02z"/>
			<path class="st3" d="M31.92,26.92c-0.9,0-1.6,0.7-1.6,1.6s0.7,1.6,1.6,1.6c0.9,0.1,1.6-0.7,1.6-1.6S32.82,26.92,31.92,26.92z
				 M31.92,29.02c-0.3,0-0.5-0.2-0.5-0.5c0-0.3,0.2-0.5,0.5-0.5c0.3,0,0.5,0.2,0.5,0.5C32.42,28.82,32.22,29.02,31.92,29.02z"/>
			<path class="st3" d="M36.02,26.92c-0.9,0-1.6,0.7-1.6,1.6s0.7,1.6,1.6,1.6c0.9,0,1.6-0.7,1.6-1.6
				C37.72,27.62,36.92,26.92,36.02,26.92z M36.02,29.02c-0.2,0-0.5-0.2-0.5-0.5c0-0.3,0.2-0.5,0.5-0.5c0.3,0.1,0.5,0.3,0.5,0.5
				C36.52,28.82,36.32,29.02,36.02,29.02z"/>
			<path class="st3" d="M51.92,43.52v-5c0-1.5-1.2-2.7-2.7-2.7h-19.8c-1.5,0-2.7,1.2-2.7,2.7v5c0,1.5,1.2,2.7,2.7,2.7h19.8
				C50.62,46.22,51.92,45.02,51.92,43.52z M27.82,43.52v-5c0-0.9,0.7-1.6,1.6-1.6h19.8c0.9,0,1.6,0.7,1.6,1.6v5
				c0,0.9-0.7,1.6-1.6,1.6h-19.8C28.52,45.12,27.82,44.42,27.82,43.52z"/>
			<path class="st3" d="M56.02,42.62l3.1-3.1c0.2-0.2,0.2-0.6,0-0.8c-0.2-0.2-0.6-0.2-0.8,0l-2.7,2.7l-0.9-0.9
				c-0.2-0.2-0.6-0.2-0.8,0s-0.2,0.6,0,0.8l1.3,1.3c0.1,0.1,0.3,0.2,0.4,0.2S55.92,42.72,56.02,42.62z"/>
			<path class="st3" d="M35.52,39.82c-0.2-0.3-0.5-0.4-0.8-0.2l-1,0.6v-1.2c0-0.3-0.3-0.6-0.6-0.6c-0.3,0-0.6,0.3-0.6,0.6v1.2
				l-1-0.6c-0.3-0.2-0.6-0.1-0.8,0.2c-0.2,0.3-0.1,0.6,0.2,0.8l1,0.6l-1,0.6c-0.3,0.2-0.4,0.5-0.2,0.8c0.1,0.2,0.3,0.3,0.5,0.3
				c0.1,0,0.2,0,0.3-0.1l1-0.6v1.2c0,0.3,0.3,0.6,0.6,0.6s0.6-0.3,0.6-0.6v-1.2l1,0.6c0.1,0.1,0.2,0.1,0.3,0.1
				c0.2,0,0.4-0.1,0.5-0.3c0.2-0.3,0.1-0.6-0.2-0.8l-1-0.6l1-0.6C35.62,40.42,35.72,40.02,35.52,39.82z"/>
			<path class="st3" d="M41.62,39.82c-0.1-0.3-0.5-0.4-0.8-0.3l-1,0.6v-1.2c0-0.3-0.3-0.6-0.6-0.6s-0.6,0.3-0.6,0.6v1.2l-1-0.6
				c-0.3-0.2-0.6-0.1-0.8,0.2c-0.2,0.3-0.1,0.6,0.2,0.8l1,0.6l-1,0.6c-0.3,0.2-0.4,0.5-0.2,0.8c0.1,0.2,0.3,0.3,0.5,0.3
				c0.1,0,0.2,0,0.3-0.1l1-0.6v1.2c0,0.3,0.3,0.6,0.6,0.6c0.3,0,0.6-0.3,0.6-0.6v-1.2l1,0.6c0.1,0.1,0.2,0.1,0.3,0.1
				c0.2,0,0.4-0.1,0.5-0.3c0.2-0.3,0.1-0.6-0.2-0.8l-1-0.6l1-0.6C41.72,40.42,41.82,40.02,41.62,39.82z"/>
			<path class="st3" d="M47.72,39.82c-0.2-0.3-0.5-0.4-0.8-0.3l-1,0.6v-1.2c0-0.3-0.3-0.6-0.6-0.6c-0.3,0-0.6,0.3-0.6,0.6v1.2
				l-1-0.6c-0.3-0.2-0.6-0.1-0.8,0.2c-0.2,0.3-0.1,0.6,0.2,0.8l1,0.6l-1,0.6c-0.3,0.2-0.4,0.5-0.2,0.8c0.1,0.2,0.3,0.3,0.5,0.3
				c0.1,0,0.2,0,0.3-0.1l1-0.6v1.2c0,0.3,0.3,0.6,0.6,0.6s0.6-0.3,0.6-0.6v-1.2l1,0.6c0.1,0.1,0.2,0.1,0.3,0.1
				c0.2,0,0.4-0.1,0.5-0.3c0.2-0.3,0.1-0.6-0.2-0.8l-1-0.6l1-0.6C47.82,40.42,47.92,40.02,47.72,39.82z"/>
			<path class="st3" d="M50.92,54.92l0.3-0.3l1.2-1.2l0.2-0.2c0.1-0.1,0.2-0.3,0.2-0.5s-0.2-0.4-0.4-0.4l-11-4.3
				c-0.2-0.1-0.5,0-0.6,0.1c-0.2,0.2-0.2,0.4-0.1,0.6l1.8,4.7l0.5,1.2l2,5.2c0.1,0.2,0.2,0.3,0.4,0.4c0.2,0,0.4,0,0.5-0.2l1.6-1.6
				l1.9,1.9c0.1,0.1,0.3,0.2,0.4,0.2c0.2,0,0.3-0.1,0.4-0.2l2.6-2.6c0.2-0.2,0.2-0.6,0-0.8L50.92,54.92z M49.82,59.02l-1.9-1.9
				c-0.1-0.1-0.3-0.2-0.4-0.2c-0.1,0-0.3,0.1-0.4,0.2l-1.5,1.4l-1.5-3.9l-0.5-1.2l-1.5-3.9l9,3.5l-0.4,0.4l-1,1.1l-0.1,0.1
				c-0.1,0-0.1,0.2-0.1,0.3s0.1,0.3,0.2,0.4l1.9,1.9L49.82,59.02z"/>
		</g>
	</g>
	<g id="레이어_13" class="st1">
		<path class="st4" d="M60.12,30.22h-3.4h-6.5v-1.5c0-1.2-0.5-2.3-1.4-3.2c-1.3-1.3-3.1-2-5.2-2h-8.2c-0.3,0-0.6,0.3-0.6,0.6v6.2
			h-6.4h-3.5c-0.3,0-0.6,0.3-0.6,0.6c0,0.3,0.3,0.6,0.6,0.6h2.9l1.9,24c0,3.2,2.3,5.8,5.4,6.2c0.1,0,0.2,0.1,0.3,0.1h0.1
			c0.2,0,0.3,0,0.5,0h12.9c0.2,0,0.3,0,0.5,0h0.1c0.1,0,0.2,0,0.3-0.1c3.1-0.4,5.5-3.1,5.5-6.2l1.9-24h2.9c0.3,0,0.6-0.3,0.6-0.6
			C60.62,30.42,60.42,30.22,60.12,30.22z M36.02,24.62h7.6c1.7,0,3.3,0.6,4.3,1.7c0.7,0.7,1.1,1.5,1.1,2.4v1.5h-0.1
			c-4.7,0-11.1,0-12.9,0C36.02,30.22,36.02,24.62,36.02,24.62z M30.92,55.22l-1.9-23.9h5.8v29C32.62,59.72,30.92,57.72,30.92,55.22z
			 M36.02,60.42v-29.1h5.9v29.1H36.02L36.02,60.42z M43.12,60.42v-29.1h5.9v29.1l0,0H43.12z M54.12,55.32c0,2.4-1.7,4.5-4,5v-29h5.9
			L54.12,55.32z"/>
	</g>
	<g id="레이어_14" class="st1">
		<path class="st4" d="M61.22,56.72l-6.9-6.9c-0.6-0.6-1.5-0.7-2.1-0.2c-0.1,0.1-0.2,0.1-0.3,0.2l-0.6,0.6l-1.2-1.2
			c0.2-0.2,0.4-0.4,0.5-0.6c0.2-0.3,0.5-0.6,0.7-0.9s0.4-0.7,0.6-1c1.4-2.4,2.2-5.1,2.2-7.9c0-8.5-6.9-15.4-15.4-15.4
			s-15.4,6.8-15.4,15.3c0,2.8,0.8,5.5,2.2,7.9c2.8,4.6,7.9,7.5,13.3,7.5c3.9,0,7.7-1.5,10.5-4.1l1.2,1.2l-0.6,0.6
			c-0.7,0.7-0.7,1.8,0,2.4l6.9,6.9c0.3,0.3,0.8,0.5,1.2,0.5s0.9-0.2,1.2-0.5l2.1-2.1C61.92,58.52,61.92,57.42,61.22,56.72z
			 M38.72,24.42c7.9,0,14.3,6.4,14.3,14.3c0,2.3-0.6,4.5-1.6,6.6c-2.7-3.5-6.1-5.8-9.9-6.6c1.7-1,2.9-2.8,2.9-5
			c0-3.2-2.6-5.7-5.7-5.7c-3.2,0-5.7,2.6-5.7,5.7c0,2.1,1.2,4,2.9,5c-3.7,0.8-7.2,3.1-9.8,6.6c-1-2-1.6-4.3-1.6-6.6
			C24.42,30.82,30.82,24.42,38.72,24.42z M38.72,38.32c-2.5,0-4.6-2.1-4.6-4.6s2.1-4.6,4.6-4.6s4.6,2.1,4.6,4.6
			S41.22,38.32,38.72,38.32z M38.72,53.02c-0.3,0-0.6,0-0.9,0c-0.1,0-0.2,0-0.3,0c-0.2,0-0.4,0-0.6-0.1c-0.1,0-0.2,0-0.4-0.1
			c-0.2,0-0.4-0.1-0.5-0.1c-0.1,0-0.3-0.1-0.4-0.1c-0.2,0-0.3-0.1-0.5-0.1c-0.1,0-0.3-0.1-0.4-0.1c-0.2,0-0.3-0.1-0.5-0.1
			c-0.1,0-0.3-0.1-0.4-0.1c-0.2-0.1-0.3-0.1-0.5-0.2c-0.1-0.1-0.3-0.1-0.4-0.2c-0.1-0.1-0.3-0.1-0.4-0.2c-0.1-0.1-0.2-0.1-0.4-0.2
			c-0.1-0.1-0.3-0.1-0.4-0.2c-0.1-0.1-0.2-0.1-0.4-0.2c-0.1-0.1-0.3-0.2-0.4-0.2c-0.1-0.2-0.2-0.3-0.3-0.3c-0.1-0.1-0.3-0.2-0.4-0.3
			c-0.1-0.1-0.2-0.2-0.3-0.3c-0.1-0.1-0.2-0.2-0.4-0.3c-0.1-0.1-0.2-0.2-0.3-0.3c-0.1-0.1-0.2-0.2-0.3-0.3c-0.1-0.1-0.2-0.2-0.3-0.3
			c-0.1-0.1-0.2-0.2-0.3-0.3c-0.1-0.1-0.2-0.2-0.3-0.3s-0.2-0.2-0.3-0.4c-0.2-0.1-0.3-0.2-0.4-0.4c-0.1-0.1-0.2-0.2-0.3-0.4
			c-0.1-0.1-0.2-0.2-0.3-0.4c-0.1-0.1-0.1-0.2-0.2-0.2c3.1-4.3,7.5-6.8,12.1-6.8c4.5,0,8.9,2.5,12.1,6.8c-0.1,0.1-0.2,0.3-0.3,0.4
			c-0.1,0.1-0.1,0.2-0.2,0.3c-0.2,0.3-0.4,0.5-0.6,0.8C47.02,51.12,43.02,53.02,38.72,53.02z M60.42,58.32l-2.1,2.1
			c-0.2,0.2-0.6,0.2-0.8,0l-6.9-6.9c-0.2-0.2-0.2-0.6,0-0.8l1.1-1.1l0,0l0,0l1.1-1.1l0.1-0.1c0.1-0.1,0.2-0.1,0.3-0.1
			c0.1,0,0.3,0.1,0.4,0.2l6.9,6.9C60.62,57.72,60.62,58.12,60.42,58.32z"/>
	</g>
	<g id="레이어_15" class="st1">
		<g class="st2">
			<path class="st0" d="M31.32,57.42c-2.5,0-4.6-2.1-4.6-4.6v-28.4h13.8c0.2,0,0.4,0,0.7,0.1c-0.1,0.2-0.2,0.4-0.2,0.6v4.1
				c0,1.8,1.5,3.3,3.3,3.3h4.5l0,0c0.3,0,0.5-0.1,0.7-0.3c0.1,0.3,0.2,0.5,0.2,0.8v8.5c0.4,0,0.8-0.1,1.2-0.1v-8.5
				c0-0.9-0.4-1.7-1-2.3l-0.2-0.2l-0.1-0.1l-2.1-2l-4.7-4.5c-0.6-0.6-1.4-0.9-2.3-0.9h-14.4c-0.3,0.4-0.6,0.6-0.6,0.9v29
				c0,3.2,2.6,5.8,5.8,5.8h9.6c-0.2-0.4-0.4-0.8-0.5-1.2L31.32,57.42z M48.82,31.52h-4.5c-1.2,0-2.1-1-2.1-2.2v-4.1l0.6,0.5
				L48.82,31.52L48.82,31.52z"/>
			<path class="st0" d="M31.62,32.32h5.9c0.3,0,0.6-0.3,0.6-0.6s-0.3-0.6-0.6-0.6h-5.9c-0.3,0-0.6,0.3-0.6,0.6
				C31.12,32.02,31.32,32.32,31.62,32.32z"/>
			<path class="st0" d="M45.32,37.82c0-0.3-0.3-0.6-0.6-0.6h-13.1c-0.3,0-0.6,0.3-0.6,0.6s0.3,0.6,0.6,0.6h13.1
				C45.12,38.42,45.32,38.22,45.32,37.82z"/>
			<path class="st0" d="M44.92,43.42h-0.1h-13.1c-0.3,0-0.6,0.3-0.6,0.6c0,0.3,0.2,0.5,0.5,0.5h11.7
				C43.82,44.12,44.32,43.72,44.92,43.42z"/>
			<path class="st0" d="M31.02,50.02c0,0.3,0.3,0.6,0.6,0.6h8.1c0.1-0.4,0.2-0.8,0.3-1.2h-8.4C31.32,49.42,31.02,49.72,31.02,50.02z
				"/>
			<path class="st0" d="M50.92,44.52L50.92,44.52c-0.4,0-0.8,0-1.2,0.1c-2.9,0.4-5.4,2.3-6.6,4.9c-0.2,0.4-0.3,0.8-0.4,1.2
				c-0.2,0.8-0.4,1.6-0.4,2.5c0,1.6,0.4,3.1,1.2,4.3c0.2,0.4,0.5,0.8,0.8,1.2c1.6,1.9,4,3.1,6.6,3.1c4.8,0,8.6-3.9,8.6-8.6
				C59.52,48.42,55.62,44.52,50.92,44.52z M50.92,60.62c-2,0-3.8-0.8-5.1-2c-0.4-0.3-0.7-0.7-1-1.1c-0.9-1.2-1.4-2.7-1.4-4.3
				c0-0.9,0.1-1.7,0.4-2.5c0.1-0.4,0.3-0.8,0.5-1.2c1.1-1.9,3-3.3,5.3-3.7c0.4-0.1,0.8-0.1,1.2-0.1l0,0c4.1,0,7.5,3.4,7.5,7.5
				C58.32,57.22,55.02,60.62,50.92,60.62z"/>
			<path class="st0" d="M50.92,55.92c-0.4,0-0.8,0.3-0.8,0.8c0,0.4,0.4,0.8,0.8,0.8c0.4,0,0.8-0.4,0.8-0.8
				C51.72,56.32,51.32,55.92,50.92,55.92z"/>
			<path class="st0" d="M50.92,48.72L50.92,48.72c-0.4,0-0.8,0.3-0.8,0.8v4.6c0,0.4,0.3,0.7,0.5,0.8c0.1,0,0.2,0,0.2,0
				c0.4,0,0.8-0.3,0.8-0.8v-4.6C51.72,49.02,51.32,48.72,50.92,48.72z"/>
		</g>
	</g>
	<g id="레이어_16" class="st1">
		<g class="st2">
			<path class="st0" d="M55.22,31.62l-0.3-0.3l-7.3-6.9l0,0l-0.1-0.1c-0.7-0.6-1.5-1-2.4-1h-15.8c-0.3,0-0.6,0.3-0.6,0.6v31.6
				c0,3.4,2.8,6.3,6.3,6.3h15.1c3.4,0,6.3-2.8,6.3-6.3v-21.4C56.32,33.12,55.92,32.22,55.22,31.62z M54.12,32.22L54.12,32.22h-5
				c-1.3,0-2.4-1.1-2.4-2.4v-4.5h0.1L54.12,32.22C54.12,32.12,54.22,32.12,54.12,32.22z M55.12,55.52c0,2.8-2.3,5.1-5.1,5.1h-15
				c-2.8,0-5.1-2.3-5.1-5.1v-31.1h15.2c0.3,0,0.6,0.1,0.8,0.1c-0.1,0.2-0.2,0.4-0.2,0.7v4.5c0,2,1.6,3.6,3.5,3.6h4.9l0,0
				c0.3,0,0.6-0.1,0.8-0.3c0.2,0.3,0.2,0.7,0.2,1V55.52z"/>
			<path class="st0" d="M35.42,33.12h6.4c0.3,0,0.6-0.3,0.6-0.6c0-0.3-0.3-0.6-0.6-0.6h-6.4c-0.3,0-0.6,0.3-0.6,0.6
				C34.82,32.82,35.02,33.12,35.42,33.12z"/>
			<path class="st0" d="M49.72,38.62h-14.3c-0.3,0-0.6,0.3-0.6,0.6c0,0.3,0.3,0.6,0.6,0.6h14.3c0.3,0,0.6-0.3,0.6-0.6
				C50.32,38.92,50.02,38.62,49.72,38.62z"/>
			<path class="st0" d="M49.72,45.22h-14.3c-0.3,0-0.6,0.3-0.6,0.6s0.3,0.6,0.6,0.6h14.3c0.3,0,0.6-0.3,0.6-0.6
				C50.32,45.52,50.02,45.22,49.72,45.22z"/>
			<path class="st0" d="M49.72,51.92h-14.3c-0.3,0-0.6,0.3-0.6,0.6c0,0.3,0.3,0.6,0.6,0.6h14.3c0.3,0,0.6-0.3,0.6-0.6
				C50.32,52.12,50.02,51.92,49.72,51.92z"/>
		</g>
	</g>
	<g id="레이어_17" class="st1">
		<g class="st2">
			<path class="st0" d="M56.82,30.92h-15.3l-3.9-4.1c-0.1-0.1-0.3-0.2-0.4-0.2h-13c-0.3,0-0.6,0.3-0.6,0.6v26.6c0,2.5,2,4.5,4.5,4.5
				h28.7c2.5,0,4.5-2,4.5-4.5v-18.4C61.42,33.02,59.32,30.92,56.82,30.92z M60.22,53.82c0,1.9-1.5,3.4-3.4,3.4h-14v-2.4h2
				c0.3,0,0.6-0.3,0.6-0.6c0-0.3-0.3-0.6-0.6-0.6h-2v-3.1h2c0.3,0,0.6-0.3,0.6-0.6c0-0.3-0.3-0.6-0.6-0.6h-2v-3.2h2
				c0.3,0,0.6-0.3,0.6-0.6c0-0.3-0.3-0.6-0.6-0.6h-2v-3.2h2c0.3,0,0.6-0.3,0.6-0.6c0-0.3-0.3-0.6-0.6-0.6h-5.1
				c-0.3,0-0.6,0.3-0.6,0.6c0,0.3,0.3,0.6,0.6,0.6h2v3.2h-2c-0.3,0-0.6,0.3-0.6,0.6c0,0.3,0.3,0.6,0.6,0.6h2v3.2h-2
				c-0.3,0-0.6,0.3-0.6,0.6s0.3,0.6,0.6,0.6h2v3.2h-2c-0.3,0-0.6,0.3-0.6,0.6c0,0.3,0.3,0.6,0.6,0.6h2v2.4h-13.5
				c-1.9,0-3.4-1.5-3.4-3.4v-26.1h12.2l3.9,4.1c0.1,0.1,0.3,0.2,0.4,0.2h15.6c1.9,0,3.4,1.5,3.4,3.4L60.22,53.82L60.22,53.82z"/>
		</g>
	</g>
	<g id="레이어_18" class="st1">
		<g class="st2">
			<path class="st0" d="M36.12,42.22c-1,0-1.8,0.8-1.8,1.8s0.8,1.8,1.8,1.8s1.8-0.8,1.8-1.8S37.02,42.22,36.12,42.22z"/>
			<path class="st0" d="M42.52,45.72c1,0,1.8-0.8,1.8-1.8s-0.8-1.8-1.8-1.8s-1.8,0.8-1.8,1.8S41.52,45.72,42.52,45.72z"/>
			<path class="st0" d="M48.92,45.72c1,0,1.8-0.8,1.8-1.8s-0.8-1.8-1.8-1.8s-1.8,0.8-1.8,1.8C47.22,44.92,48.02,45.72,48.92,45.72z"
				/>
			<path class="st0" d="M56.92,30.92h-15.4l-3.9-4.1c-0.1-0.1-0.3-0.2-0.4-0.2h-13c-0.3,0-0.6,0.3-0.6,0.6v26.6c0,2.5,2,4.5,4.5,4.5
				h28.7c2.5,0,4.5-2,4.5-4.5v-18.4C61.42,32.92,59.32,30.92,56.92,30.92z M60.22,53.82c0,1.9-1.5,3.4-3.4,3.4h-28.7
				c-1.9,0-3.4-1.5-3.4-3.4v-26h12.2l3.9,4.1c0.1,0.1,0.3,0.2,0.4,0.2h15.6c1.9,0,3.4,1.5,3.4,3.4V53.82L60.22,53.82z"/>
		</g>
	</g>
	<g id="레이어_19" class="st1">
		<path class="st5" d="M55.82,23.32h-32c-0.3,0-0.5,0.3-0.5,0.6v32c0,3.3,2.7,5.9,5.9,5.9h26.6c3.3,0,5.9-2.7,5.9-5.9v-26.7
			C61.72,26.02,59.12,23.32,55.82,23.32z M29.22,60.62c-2.6,0-4.8-2.1-4.8-4.8v-6.5l8-11.9c0.1-0.1,0.2-0.2,0.4-0.2
			c0.2,0,0.3,0.1,0.4,0.2l7.7,10.6c0.4,0.5,0.9,0.8,1.5,0.7c0.6,0,1.1-0.3,1.5-0.9l2.3-3.7c0.1-0.2,0.3-0.2,0.4-0.3
			c0.2,0,0.3,0.1,0.5,0.2l11.5,15.5c-0.8,0.6-1.7,0.9-2.8,0.9L29.22,60.62L29.22,60.62z M60.62,55.82c0,1.2-0.4,2.3-1.1,3.1
			l-11.5-15.4c-0.3-0.4-0.9-0.7-1.4-0.7c-0.6,0-1.1,0.3-1.4,0.8l-2.3,3.7c-0.1,0.2-0.3,0.3-0.5,0.3s-0.4-0.1-0.6-0.3l-7.7-10.6
			c-0.3-0.4-0.8-0.7-1.3-0.7s-1,0.3-1.3,0.7l-7,10.5v-22.7h31.4c2.6,0,4.8,2.1,4.8,4.8L60.62,55.82L60.62,55.82z"/>
		<path class="st5" d="M51.32,29.12c-2.6,0-4.7,2.1-4.7,4.7s2.1,4.7,4.7,4.7c2.6,0,4.7-2.1,4.7-4.7
			C56.02,31.22,53.92,29.12,51.32,29.12z M51.32,37.32c-1.9,0-3.5-1.6-3.5-3.5c0-1.9,1.6-3.5,3.5-3.5c1.9,0,3.5,1.6,3.5,3.5
			C54.82,35.72,53.22,37.32,51.32,37.32z"/>
	</g>
	<g>
		<path class="st3" d="M28.017,50.554c-3.115,0-5.582-1.692-5.582-4.357c0-2.034,1.675-3.331,2.971-3.601
			c-1.135-0.342-2.467-1.602-2.467-3.277c0-2.305,2.088-4.195,5.077-4.195c3.007,0,5.042,1.927,5.042,4.195
			c0,1.675-1.314,2.935-2.431,3.277c1.314,0.271,2.971,1.567,2.971,3.601C33.599,48.862,31.132,50.554,28.017,50.554z M28.017,44.09
			c-1.404,0-2.431,0.81-2.431,1.908c0,1.062,0.99,1.854,2.431,1.854s2.431-0.792,2.431-1.854C30.448,44.9,29.422,44.09,28.017,44.09
			z M28.017,37.788c-1.134,0-1.98,0.648-1.98,1.584c0,1.026,0.882,1.747,1.98,1.747c1.135,0,1.981-0.684,1.981-1.675
			C29.998,38.508,29.187,37.788,28.017,37.788z"/>
		<path class="st3" d="M34.729,45.908h3.223c0.126,1.17,0.792,1.854,2.143,1.854c1.332,0,2.143-0.99,2.143-2.341
			c0-1.368-0.792-2.322-2.197-2.322c-1.025,0-1.674,0.45-2.07,0.99h-2.971l0.432-8.57h9.273v2.791h-6.302l-0.162,2.755
			c0.63-0.378,1.422-0.612,2.358-0.612c2.881,0,4.825,1.854,4.825,4.969c0,3.097-2.305,5.113-5.329,5.113
			C36.907,50.535,34.963,48.736,34.729,45.908z"/>
		<path class="st3" d="M54.117,38.724c0,1.999-1.477,3.457-3.619,3.457c-2.125,0-3.601-1.458-3.601-3.457
			c0-2.017,1.476-3.475,3.601-3.475C52.641,35.25,54.117,36.708,54.117,38.724z M51.236,50.194H48.77l9.723-14.674h2.467
			L51.236,50.194z M49.111,38.724c0,0.792,0.576,1.387,1.387,1.387s1.387-0.594,1.387-1.387c0-0.792-0.576-1.386-1.387-1.386
			S49.111,37.932,49.111,38.724z M62.832,46.988c0,1.999-1.477,3.457-3.619,3.457c-2.125,0-3.602-1.458-3.602-3.457
			c0-2.017,1.477-3.475,3.602-3.475C61.356,43.514,62.832,44.972,62.832,46.988z M57.826,46.988c0,0.792,0.576,1.387,1.387,1.387
			c0.81,0,1.386-0.595,1.386-1.387s-0.576-1.386-1.386-1.386C58.402,45.603,57.826,46.196,57.826,46.988z"/>
	</g>
	<g>
		<path class="st6" d="M17.626,14.639C9.964,21.484,5.137,31.436,5.137,42.52c0,20.646,16.737,37.383,37.383,37.383
			S79.903,63.166,79.903,42.52c0-20.646-16.737-37.383-37.383-37.383"/>
		<path class="st6" d="M42.52,5.137"/>
	</g>
</g>
<g id="레이어_2" class="st1">
	
		<image style="display:inline;overflow:visible;" width="698" height="526" xlink:href="46ED486C.jpg"  transform="matrix(0.5162 0 0 0.5162 145.2154 131.5765)">
	</image>
	<circle class="st7" cx="268.335" cy="53.498" r="37.383"/>
	<circle class="st7" cx="166.496" cy="53.498" r="37.383"/>
	<circle class="st5" cx="129.113" cy="-28.431" r="37.383"/>
	<rect x="275.073" y="217.562" class="st8" width="9.979" height="36.681"/>
	<rect x="258.356" y="2.783" class="st8" width="9.979" height="36.681"/>
	<g class="st2">
		<path class="st6" d="M426.413-78.528c-14.11,5.346-24.145,18.979-24.145,34.963c0,20.646,16.737,37.383,37.383,37.383
			c20.646,0,37.383-16.737,37.383-37.383c0-20.646-16.737-37.383-37.383-37.383"/>
		<path class="st6" d="M426.413-78.528"/>
		<path class="st6" d="M439.651-80.948"/>
	</g>
	
		<text transform="matrix(1 0 0 1 580.3738 354.5662)" class="st4" style="font-family:'GmarketSansBold-KSCpc-EUC-H'; font-size:18px;">90%</text>
	<g class="st2">
		<path class="st6" d="M569.969,245.405c-7.662,6.846-12.489,16.798-12.489,27.881c0,20.646,16.737,37.383,37.383,37.383
			s37.383-16.737,37.383-37.383c0-20.646-16.737-37.383-37.383-37.383"/>
		<path class="st6" d="M594.862,235.903"/>
	</g>
	<g class="st2">
		<path class="st6" d="M347.09,34.089c-3.444,5.658-5.428,12.302-5.428,19.41c0,20.646,16.737,37.383,37.383,37.383
			s37.383-16.737,37.383-37.383c0-20.646-16.737-37.383-37.383-37.383c-0.013,0-0.027,0.001-0.04,0.001"/>
		<path class="st9" d="M347.09,34.089"/>
		<path class="st9" d="M379.005,16.116"/>
		<path class="st6" d="M347.09,34.089"/>
		<path class="st6" d="M379.005,16.116"/>
	</g>
</g>
</svg>
