<?xml version="1.0" encoding="utf-8"?>
<!-- Generator: Adobe Illustrator 24.3.0, SVG Export Plug-In . SVG Version: 6.00 Build 0)  -->
<svg version="1.1" id="레이어_1" xmlns="http://www.w3.org/2000/svg" xmlns:xlink="http://www.w3.org/1999/xlink" x="0px"
	 y="0px" viewBox="0 0 40 40" style="enable-background:new 0 0 40 40;" xml:space="preserve">
<style type="text/css">
	.st0{display:none;}
	.st1{display:inline;}
	.st2{fill:#333333;}
	.st3{display:inline;fill:#333333;}
	.st4{fill:#FFFFFF;}
	.st5{display:inline;fill:#FFFFFF;}
	.st6{fill:none;stroke:#333333;stroke-width:3.7063;stroke-linecap:round;}
</style>
<g id="레이어_3">
</g>
<g id="레이어_1_1_" class="st0">
	<g class="st1">
		<path class="st2" d="M9.5,36.8c-2.7,0-4.9-2.2-4.9-4.9V2h14.6c0.2,0,0.5,0,0.7,0.1c-0.1,0.2-0.2,0.4-0.2,0.6v4.4
			c0,1.9,1.5,3.5,3.4,3.5h4.8l0,0c0.3,0,0.6-0.1,0.8-0.3c0.1,0.3,0.2,0.6,0.2,0.9v8.9c0.4,0.1,0.8,0.2,1.2,0.3v-9.2
			c0-0.9-0.4-1.8-1.1-2.4l-0.2-0.2l-0.1-0.1l-7-6.6l0,0l-0.1-0.1c-0.6-0.6-1.5-0.9-2.4-0.9H3.4V32c0,3.4,2.7,6.1,6.1,6.1h11.4
			c-0.5-0.4-0.9-0.8-1.3-1.2H9.5V36.8z M28,9.4h-4.8c-1.3,0-2.3-1-2.3-2.3V2.7l0.7,0.6L28,9.4L28,9.4z"/>
		<path class="st2" d="M36.4,38.3l-1.8-1.8l-0.9-0.9l-1.4-1.4c0.9-1.1,1.4-2.6,1.4-4.2c0-2.6-1.4-4.8-3.6-6
			c-0.4-0.2-0.8-0.4-1.2-0.5c-0.6-0.2-1.3-0.3-2-0.3c-3.7,0-6.8,3-6.8,6.8c0,3.3,2.3,6,5.4,6.6c0.5,0.1,0.9,0.1,1.4,0.1
			c0.3,0,0.6,0,0.9-0.1c1.4-0.2,2.6-0.8,3.6-1.7l2.3,2.3l1.8,1.8c0.1,0.1,0.3,0.2,0.4,0.2c0.2,0,0.3-0.1,0.4-0.2
			C36.6,38.9,36.6,38.5,36.4,38.3z M29.3,35.1c-0.6,0.3-1.2,0.5-1.9,0.5c-0.1,0-0.3,0-0.4,0c-3.1,0-5.6-2.5-5.6-5.6s2.5-5.6,5.6-5.6
			c0.7,0,1.4,0.1,2,0.4c0.4,0.2,0.8,0.4,1.2,0.6c1.4,1,2.4,2.7,2.4,4.6C32.5,32.2,31.2,34.2,29.3,35.1z"/>
	</g>
</g>
<g id="레이어_2_1_" class="st0">
	<g class="st1">
		<path class="st2" d="M10.8,22.8c-0.2-0.3-0.5-0.4-0.8-0.2c-0.3,0.2-0.4,0.5-0.2,0.8c0.4,0.8,1,1.6,1.7,2.3
			c0.1,0.1,0.3,0.2,0.4,0.2c0.1,0,0.3-0.1,0.4-0.2c0.2-0.2,0.2-0.6,0-0.8C11.7,24.3,11.2,23.6,10.8,22.8z"/>
		<path class="st2" d="M10.7,14.8c0.1-0.3,0-0.6-0.3-0.8c-0.3-0.1-0.6,0-0.8,0.3C9.2,15.1,8.9,16,8.8,17c-0.1,0.3,0.2,0.6,0.5,0.7
			h0.1c0.3,0,0.5-0.2,0.6-0.5C10,16.3,10.3,15.5,10.7,14.8z"/>
		<path class="st2" d="M16.9,8.8C16,9,15.1,9.3,14.2,9.7c-0.3,0.1-0.4,0.5-0.3,0.8c0.1,0.2,0.3,0.3,0.5,0.3c0.1,0,0.2,0,0.3-0.1
			c0.7-0.4,1.5-0.6,2.4-0.8c0.3-0.1,0.5-0.4,0.5-0.7C17.5,9,17.2,8.8,16.9,8.8z"/>
		<path class="st2" d="M23.3,9.8c-0.3-0.2-0.6,0-0.8,0.2c-0.2,0.3,0,0.6,0.2,0.8c0.7,0.4,1.4,0.9,2,1.5c0.1,0.1,0.3,0.2,0.4,0.2
			c0.2,0,0.3-0.1,0.4-0.2c0.2-0.2,0.2-0.6,0-0.8C24.9,10.8,24.1,10.3,23.3,9.8z"/>
		<path class="st2" d="M36.2,15.4C34.6,6.9,27.3,0.8,18.6,0.8c-9.9,0-17.9,8-17.9,17.9c0,8.7,6.1,16,14.6,17.6c0.1,1.7,1.6,3,3.3,3
			c1.8,0,3.3-1.5,3.3-3.3c0-1.6-1.2-3-2.7-3.3v-4v-1.9V20v-0.8H20h6.8h1.9h4c0.3,1.6,1.6,2.7,3.3,2.7c1.8,0,3.3-1.5,3.3-3.3
			C39.2,16.9,37.9,15.5,36.2,15.4z M20.8,36c0,1.2-1,2.2-2.2,2.2s-2.2-1-2.2-2.2s1-2.2,2.2-2.2S20.8,34.8,20.8,36z M26.7,18.1H20h-2
			V20v6.8v0.7c-0.2,0-0.4,0-0.7-0.1c-0.3,0-0.6,0.2-0.7,0.5c0,0.3,0.2,0.6,0.5,0.7c0.3,0,0.6,0.1,0.8,0.1v4.1
			c-1.3,0.2-2.3,1.2-2.6,2.4C7.6,33.6,1.9,26.8,1.9,18.7C1.9,9.5,9.4,2,18.6,2C26.7,2,33.5,7.6,35,15.5c-1.2,0.3-2.1,1.4-2.4,2.6
			h-4.1c0-0.3,0-0.6-0.1-0.8c0-0.3-0.3-0.5-0.7-0.5c-0.3,0-0.5,0.3-0.5,0.7c0,0.2,0.1,0.4,0.1,0.7L26.7,18.1L26.7,18.1z M35.9,20.8
			c-1.2,0-2.2-1-2.2-2.2s1-2.2,2.2-2.2s2.2,1,2.2,2.2C38.1,19.9,37.1,20.8,35.9,20.8z"/>
	</g>
</g>
<g id="레이어_4" class="st0">
	<g class="st1">
		<path class="st2" d="M33.8,18v-6.4c0-0.9-0.4-1.9-1.1-2.5l-0.2-0.2l-0.1-0.1l-7.3-6.9l0,0L25,1.8c-0.7-0.6-1.5-1-2.4-1H6.2V18
			c-2,0.1-3.6,1.7-3.6,3.8v6.4c0,2,1.6,3.7,3.6,3.7V33c0,3.4,2.8,6.3,6.3,6.3h15.1c3.4,0,6.3-2.8,6.3-6.3v-1.1
			c2-0.1,3.6-1.7,3.6-3.7v-6.4C37.4,19.7,35.8,18.1,33.8,18z M31.6,9.6C31.6,9.6,31.6,9.7,31.6,9.6c0,0.1,0,0.1,0,0.1l0,0h-4.9
			c-1.3,0-2.4-1.1-2.4-2.4V2.8h-0.6h0.6L31.6,9.6z M36.2,28.1c0,1.4-1.1,2.5-2.4,2.6c-0.1,0-0.1,0-0.2,0h-1h-5.5
			c-0.4,0.4-0.7,0.8-1.2,1.2h6.6V33c0,2.8-2.3,5.1-5.1,5.1H12.5c-2.8,0-5.1-2.3-5.1-5.1v-1.1H14c-0.4-0.4-0.8-0.7-1.2-1.2H7.4h-1
			c-0.1,0-0.1,0-0.2,0c-1.4-0.1-2.4-1.2-2.4-2.6v-6.4c0-1.4,1.1-2.5,2.4-2.6c0.1,0,0.1,0,0.2,0h1h4.9c0.3-0.4,0.6-0.8,1-1.2H7.4V2
			h15.2c0.3,0,0.6,0,0.8,0.1c-0.1,0.2-0.2,0.4-0.2,0.7v4.5c0,2,1.6,3.6,3.5,3.6h4.9l0,0c0.3,0,0.6-0.1,0.8-0.3
			c0.1,0.3,0.2,0.6,0.2,1V18h-5.9c0.4,0.4,0.7,0.7,1,1.2h4.9h1c0.1,0,0.1,0,0.2,0c1.4,0.1,2.4,1.2,2.4,2.6V28.1z"/>
		<path class="st2" d="M23.9,19.1c-0.8-0.6-1.7-1-2.8-1.2c-0.4-0.1-0.7-0.1-1.1-0.1s-0.7,0-1.1,0.1c-1,0.2-2,0.6-2.8,1.2
			c-1.7,1.2-2.8,3.2-2.8,5.4c0,2.9,1.8,5.3,4.4,6.2c0.7,0.3,1.5,0.4,2.3,0.4s1.6-0.1,2.3-0.4c2.5-0.9,4.4-3.4,4.4-6.2
			C26.6,22.3,25.5,20.3,23.9,19.1z M20,30c-3,0-5.5-2.5-5.5-5.5c0-2.7,1.9-4.9,4.5-5.4c0.3-0.1,0.7-0.1,1-0.1s0.7,0,1,0.1
			c2.5,0.5,4.5,2.7,4.5,5.4C25.5,27.5,23,30,20,30z"/>
		<path class="st2" d="M19.9,27c-0.4,0-0.7,0.3-0.7,0.7c0,0.4,0.3,0.7,0.7,0.7c0.4,0,0.7-0.3,0.7-0.7S20.3,27,19.9,27z"/>
		<path class="st2" d="M20.1,21c-0.8,0-1.6,0.4-1.8,1c-0.1,0.3,0,0.6,0.3,0.7c0.2,0.1,0.5,0.2,0.8-0.1c0.2-0.2,0.4-0.4,0.7-0.4
			c0.5,0,0.7,0.2,0.7,0.7c0,0.4-0.4,0.8-0.8,1s-0.6,0.6-0.6,1.1v0.5c0,0.2,0.1,0.3,0.2,0.4S19.9,26,20,26c0.3,0,0.6-0.2,0.6-0.5
			v-0.4c0-0.2,0.1-0.4,0.4-0.5c0.6-0.3,1.3-1,1.3-1.8C22.1,21.7,21.4,21,20.1,21z"/>
	</g>
</g>
<g id="레이어_5" class="st0">
	<path class="st3" d="M38.7,0.8H26.2H13.8H1.3C1,0.8,0.8,1.1,0.8,1.4v12.4v12.4v12.4c0,0.3,0.3,0.6,0.6,0.6h12.4h12.4h12.4
		c0.3,0,0.6-0.3,0.6-0.6V26.2V13.8V1.4C39.2,1.1,39,0.8,38.7,0.8z M1.9,14.4h11.3v11.3H1.9V14.4z M14.4,14.4h11.3v11.3H14.4V14.4z
		 M26.8,14.4h11.3v11.3H26.8V14.4z M38.1,13.2H26.8V1.9h11.3V13.2z M25.6,13.2H14.4V1.9h11.3v11.3H25.6z M1.9,1.9h11.3v11.3H1.9V1.9
		z M1.9,26.8h11.3v11.3H1.9V26.8z M14.4,26.8h11.3v11.3H14.4V26.8z M38.1,38.1H26.8V26.8h11.3V38.1z"/>
</g>
<g id="레이어_6" class="st0">
	<path class="st3" d="M19.1,9.3c0,2.1,1.7,3.9,3.9,3.9c2.1,0,3.9-1.7,3.9-3.9c0-2.1-1.7-3.9-3.9-3.9C20.8,5.5,19.1,7.2,19.1,9.3z
		 M25.7,9.3c0,1.5-1.2,2.7-2.7,2.7s-2.7-1.2-2.7-2.7s1.2-2.7,2.7-2.7C24.4,6.6,25.7,7.8,25.7,9.3z"/>
	<path class="st3" d="M17.4,20.9l1.8-3c0.1-0.1,0.2-0.1,0.3-0.2c0.1,0,0.2,0,0.3,0.1l2,2.8l0.9-0.7l-2-2.7c-0.3-0.4-0.8-0.6-1.3-0.6
		s-0.9,0.3-1.2,0.7l-1.8,3c-0.1,0.2-0.3,0.2-0.3,0.2c-0.1,0-0.2,0-0.3-0.2l-6.3-8.6c-0.3-0.4-0.7-0.6-1.2-0.6s-0.9,0.3-1.2,0.6
		L1.6,20V2H27c2.1,0,3.8,1.7,3.8,3.8v9.6H32V5.7c0-2.7-2.2-4.9-4.9-4.9H0.4v26.5c0,2.7,2.2,4.9,4.9,4.9h7.5V31H5.3
		c-2.1,0-3.8-1.7-3.8-3.8V22L8,12.5c0.1-0.1,0.2-0.1,0.2-0.1c0.1,0,0.2,0,0.2,0.1l6.3,8.6c0.3,0.4,0.8,0.7,1.3,0.6
		C16.6,21.7,17.1,21.4,17.4,20.9z"/>
	<path class="st3" d="M31.5,29c-0.2-0.3-0.6-0.5-1-0.6c-0.1,0-0.1,0-0.2,0c-0.4,0-0.8,0.2-1,0.4c-0.3,0.3-0.5,0.7-0.5,1.1
		c0,0.1,0,0.1,0,0.2s0,0.2,0.1,0.3c0.1,0.4,0.4,0.7,0.8,0.9c0.2,0.1,0.4,0.1,0.6,0.1s0.5-0.1,0.7-0.2l2.1,1.8
		c0.1,0.1,0.2,0.1,0.4,0.1s0.3-0.1,0.4-0.2c0.2-0.2,0.2-0.6-0.1-0.8l-2.1-1.8c0-0.1,0.1-0.3,0.1-0.5C31.8,29.6,31.7,29.3,31.5,29z"
		/>
	<path class="st3" d="M24.6,25.5h-6c-0.3,0-0.6,0.3-0.6,0.6c0,0.3,0.3,0.6,0.6,0.6h6c0.3,0,0.6-0.3,0.6-0.6
		C25.2,25.7,24.9,25.5,24.6,25.5z"/>
	<path class="st3" d="M19.3,29.1c0,0.3,0.3,0.6,0.6,0.6h6c0.3,0,0.6-0.3,0.6-0.6s-0.3-0.6-0.6-0.6h-6C19.6,28.5,19.3,28.7,19.3,29.1
		z"/>
	<path class="st3" d="M23.2,32.2c0-0.1,0-0.1,0-0.2c0-0.3-0.3-0.6-0.6-0.6h-6c-0.3,0-0.6,0.3-0.6,0.6c0,0.1,0,0.1,0,0.2
		c0.1,0.2,0.3,0.4,0.5,0.4h6C22.9,32.6,23.1,32.5,23.2,32.2z"/>
	<path class="st3" d="M24.1,34.5h-3.8c-0.3,0-0.6,0.3-0.6,0.6s0.3,0.6,0.6,0.6h3.8c0.3,0,0.6-0.3,0.6-0.6
		C24.7,34.7,24.4,34.5,24.1,34.5z"/>
	<path class="st3" d="M31.8,20.8c-0.3,0-0.6-0.1-0.9-0.1v-0.6h0.8h0.1c0.4-0.1,0.8-0.4,0.8-0.9c0-0.4-0.3-0.8-0.8-0.9h-0.1h-1.1
		h-1.8c-0.5,0-0.9,0.4-0.9,0.9s0.4,0.9,0.9,0.9h0.8v0.6c-1.9,0.1-3.6,0.8-5.1,1.9c-0.3,0.2-0.6,0.5-0.9,0.8
		c-0.1,0.1-0.1,0.1-0.2,0.2c-0.2,0.2-0.2,0.6,0,0.8c0.2,0.2,0.6,0.2,0.8,0l0,0c0.3-0.3,0.6-0.5,0.9-0.8c1.4-1.1,3.2-1.7,5-1.7
		c0.1,0,0.2,0,0.3,0c0.4,0,0.8,0.1,1.2,0.1c3.8,0.7,6.6,4,6.6,8c0,4.5-3.6,8.1-8.1,8.1c-1.7,0-3.3-0.5-4.7-1.5
		c-0.3-0.2-0.6-0.1-0.8,0.1s-0.1,0.6,0.1,0.8c1.6,1.1,3.4,1.7,5.3,1.7c5.1,0,9.3-4.2,9.3-9.3C39.6,25.4,36.2,21.5,31.8,20.8z"/>
</g>
<g id="레이어_7" class="st0">
	<g class="st1">
		<path class="st4" d="M26.2,29.8c0,2.2-1.8,4-4,4H6c-2.2,0-4-1.8-4-4V22h8.5c-0.1-0.4-0.2-0.8-0.2-1.1H2v-4h8.3v-1.1H1.4
			c-0.3,0-0.6,0.3-0.6,0.6v13.5c0,2.8,2.3,5.1,5.1,5.1h16.2c2.8,0,5.1-2.3,5.1-5.1v-2.7h-1.1v2.6H26.2z"/>
		<path class="st4" d="M19.2,31.4c0.6,0.4,1.3,0.7,2,0.7c1.7,0,3.2-1.4,3.2-3.2c0-0.5-0.1-0.9-0.3-1.3c-0.5-1.1-1.6-1.8-2.9-1.8
			c-0.7,0-1.4,0.3-2,0.7c-0.6-0.4-1.3-0.7-2-0.7c-1.1,0-2,0.5-2.6,1.4C14.2,27.7,14,28.3,14,29c0,1.7,1.4,3.2,3.2,3.2
			C18,32.1,18.7,31.8,19.2,31.4z M21.2,26.9c0.6,0,1.1,0.3,1.5,0.7c0.3,0.4,0.5,0.8,0.5,1.3c0,1.1-0.9,2-2,2c-0.4,0-0.9-0.1-1.2-0.4
			c0.3-0.5,0.4-1,0.4-1.6c0-0.5-0.1-0.9-0.3-1.3c0-0.1-0.1-0.2-0.1-0.3C20.3,27,20.7,26.9,21.2,26.9z M15.2,28.9
			c0-0.6,0.2-1.1,0.6-1.5c0.4-0.3,0.8-0.6,1.4-0.6s1.1,0.2,1.5,0.7l0,0c0.3,0.4,0.5,0.8,0.5,1.3s-0.2,0.9-0.5,1.3
			c-0.4,0.5-0.9,0.7-1.5,0.7C16.1,30.9,15.2,30,15.2,28.9z"/>
		<path class="st4" d="M34.1,5.2H13.3c-0.3,0-0.6,0.3-0.6,0.6v5.7v4.2v1.1v2.5c0,0.5,0.1,1,0.2,1.5c0.1,0.4,0.3,0.8,0.5,1.1
			c0.9,1.5,2.5,2.5,4.4,2.5h8.3h1.1h3.6H34c2.8,0,5.2-2.3,5.2-5.2v-9C39.2,7.5,36.9,5.2,34.1,5.2z M38.1,19.3c0,2.2-1.8,4-4,4h-3.2
			h-3.6h-1.1h-8.3c-1.2,0-2.3-0.5-3-1.4c-0.3-0.3-0.5-0.7-0.7-1.1c-0.2-0.5-0.3-1-0.3-1.5v-2.5v-1.1v-4.2V6.3h20.3c2.2,0,4,1.8,4,4
			v9H38.1z"/>
		<path class="st4" d="M17.2,16.8c0.3,0.3,0.7,0.4,1.2,0.4h4c0.4,0,0.7-0.1,1-0.2c0.2-0.1,0.4-0.3,0.5-0.4c0.1-0.2,0.1-0.3,0.1-0.5
			c0-0.4-0.1-0.9-0.5-1.4c-0.4-0.7-0.9-1.2-1.5-1.5c0.4-0.4,0.6-1,0.6-1.6c0-1.3-1-2.3-2.3-2.3s-2.3,1-2.3,2.3
			c0,0.6,0.2,1.2,0.6,1.6c-0.6,0.3-1.1,0.8-1.5,1.5c-0.2,0.4-0.4,0.7-0.4,1.1c-0.1,0.3,0,0.6,0.1,0.9C17,16.6,17.1,16.7,17.2,16.8z
			 M20.4,10.3c0.6,0,1.1,0.5,1.1,1.1s-0.5,1.1-1.1,1.1s-1.1-0.5-1.1-1.1S19.8,10.3,20.4,10.3z M18.3,15.2c0.5-0.9,1.3-1.4,2.2-1.4
			c0.8,0,1.6,0.5,2.2,1.4c0.1,0.2,0.2,0.4,0.2,0.5C23,15.9,23,16,23,16s-0.1,0.1-0.4,0.1h-4C18.1,16,18,16,18,16s0-0.1,0.1-0.3
			C18.1,15.5,18.1,15.4,18.3,15.2z"/>
		<path class="st4" d="M35,19.1h-4.1H27h-1.2H17c-0.3,0-0.6,0.3-0.6,0.6c0,0.3,0.3,0.6,0.6,0.6h9.2h1.2H31h4c0.3,0,0.6-0.3,0.6-0.6
			C35.6,19.3,35.3,19.1,35,19.1z"/>
		<path class="st4" d="M35,15.4h-4.1h-3.3c-0.3,0-0.6,0.3-0.6,0.6s0.3,0.6,0.6,0.6h3.3H35c0.3,0,0.6-0.3,0.6-0.6
			C35.6,15.7,35.3,15.4,35,15.4z"/>
	</g>
</g>
<g id="레이어_8" class="st0">
	<path class="st5" d="M32.6,9.1l-7.7-7.3c-0.7-0.6-1.5-1-2.4-1H6.2V33c0,3.4,2.8,6.2,6.2,6.2h15.1c3.4,0,6.2-2.8,6.2-6.2V11.6
		C33.7,10.6,33.3,9.7,32.6,9.1z M24.3,2.8l7.3,6.9c0,0,0,0,0,0.1h-0.1h-4.9c-1.3,0-2.4-1.1-2.4-2.4L24.3,2.8L24.3,2.8z M22.5,1.9
		c0.3,0,0.6,0.1,0.8,0.1c-0.1,0.2-0.2,0.4-0.2,0.7v4.5c0,2,1.6,3.5,3.5,3.6h4.9l0,0c0.3,0,0.6-0.1,0.8-0.3c0.2,0.3,0.2,0.7,0.2,1
		v1.3H7.3V1.9H22.5L22.5,1.9z M27.5,38.1H12.4c-2.8,0-5.1-2.3-5.1-5.1V14h25.3v19C32.6,35.8,30.3,38.1,27.5,38.1z"/>
	<path class="st5" d="M10.4,9.4h0.1l0.1-0.1V7.6h1.2c0.3,0,0.6-0.1,0.8-0.3c0.2-0.2,0.3-0.5,0.3-0.7c0-0.3-0.1-0.6-0.3-0.8
		c-0.2-0.2-0.5-0.3-0.8-0.3h-1.1c-0.2,0-0.3,0.1-0.4,0.2c-0.1,0.1-0.1,0.2-0.1,0.4v3.3c0,0.1,0,0.1,0,0.1
		C10.3,9.4,10.4,9.4,10.4,9.4z M10.6,6c0-0.1,0-0.1,0.1-0.2c0-0.1,0.1-0.1,0.2-0.1h1c0.3,0,0.5,0.1,0.6,0.2s0.2,0.3,0.2,0.6
		c0,0.2-0.1,0.4-0.2,0.5c-0.1,0.2-0.4,0.2-0.6,0.2h-1.2L10.6,6L10.6,6z"/>
	<path class="st5" d="M14.3,9.3h0.8c0.6,0,1-0.2,1.4-0.6C16.8,8.3,17,7.9,17,7.3s-0.2-1-0.5-1.4s-0.8-0.6-1.4-0.6h-0.8
		c-0.2,0-0.3,0.1-0.4,0.2c-0.1,0.1-0.1,0.2-0.1,0.4v2.9c0,0.1,0,0.3,0.1,0.4C14,9.3,14.2,9.3,14.3,9.3z M14.1,6c0-0.1,0-0.1,0.1-0.2
		c0-0.1,0.1-0.1,0.2-0.1h0.7c0.5,0,0.8,0.2,1.1,0.5c0.3,0.3,0.4,0.7,0.4,1.2s-0.1,0.9-0.4,1.2C15.9,8.9,15.6,9,15.1,9h-0.7
		c-0.1,0-0.1,0-0.2-0.1c0,0-0.1-0.1-0.1-0.2V6z"/>
	<path class="st5" d="M18,9.4h0.1l0.1-0.1V7.5H20c0.1,0,0.1,0,0.1,0V7.4V7.3H20h-1.8V6c0-0.1,0-0.1,0.1-0.2c0-0.1,0.1-0.1,0.2-0.1
		h1.8c0.1,0,0.1,0,0.1,0V5.6V5.5h-0.1h-1.8c-0.2,0-0.3,0.1-0.4,0.2S18,5.9,18,6.1V9.4c0,0.1,0,0.1,0,0.1C17.9,9.4,18,9.4,18,9.4z"/>
	<path class="st5" d="M27.2,18.5h-6.1c-0.3,0-0.6,0.3-0.6,0.6c0,0.3,0.3,0.6,0.6,0.6h6.1c0.3,0,0.6-0.3,0.6-0.6
		C27.8,18.8,27.5,18.5,27.2,18.5z"/>
	<path class="st5" d="M27.2,22.6h-6.1c-0.3,0-0.6,0.3-0.6,0.6s0.3,0.6,0.6,0.6h6.1c0.3,0,0.6-0.3,0.6-0.6S27.5,22.6,27.2,22.6z"/>
	<path class="st5" d="M27.2,26.7H12.7c-0.3,0-0.6,0.3-0.6,0.6s0.3,0.6,0.6,0.6h14.6c0.3,0,0.6-0.3,0.6-0.6S27.5,26.7,27.2,26.7z"/>
	<path class="st5" d="M21.6,30.7h-8.9c-0.3,0-0.6,0.3-0.6,0.6c0,0.3,0.3,0.6,0.6,0.6h8.9c0.3,0,0.6-0.3,0.6-0.6S21.9,30.7,21.6,30.7
		z"/>
	<path class="st5" d="M13.7,24.3H17c0.9,0,1.7-0.7,1.7-1.7v-3.2c0-0.9-0.7-1.7-1.7-1.7h-3.2c-0.9,0-1.7,0.7-1.7,1.7v3.2
		C12.1,23.5,12.8,24.3,13.7,24.3z"/>
</g>
<g id="레이어_9" class="st0">
	<path class="st5" d="M12.1,28.5H9.6H8.8c-0.1,0-0.2,0-0.3,0.1c-0.2,0.1-0.3,0.3-0.3,0.5s0.1,0.4,0.3,0.5c0.1,0.1,0.2,0.1,0.3,0.1
		h0.8h2.5c0.3,0,0.6-0.3,0.6-0.6C12.6,28.7,12.4,28.5,12.1,28.5z"/>
	<path class="st5" d="M15.2,33.9c1.7,0,3.2-0.9,4.1-2.2c0.2-0.3,0.4-0.7,0.5-1c0.2-0.5,0.3-1.1,0.3-1.6v-1.7v-2.1v-3.5v-1.4v-3.5
		l0,0v-0.1v-1l0,0v-0.1v-2.9v-0.1v-1v-0.1V8c0-2.7-2.2-4.9-4.9-4.9H0.8v26c0,2.7,2.2,4.8,4.8,4.8h3.1h1.2H15.2z M18.9,11.6v1v0.1
		v2.9v0.1l0,0v1v0.1l0,0v4.4V23v1.2h-0.6h-0.2h-0.9h-0.1H9.6H8.5H3.6H2.8H1.9V8.6h0.9h0.9h13.6h0.9h0.9v2.9v0.1H18.9z M1.9,4.2h13.2
		c1.9,0,3.5,1.4,3.7,3.2H18h-0.9H3.6H2.8H1.9V4.2z M8.5,32.8H5.6c-2,0-3.7-1.7-3.7-3.7v-3.7h0.9h0.9h4.9h1.1H17h0.4H18h0.1H19v3.7
		c0,0.2,0,0.4,0,0.6c-0.1,0.5-0.2,0.9-0.4,1.3c-0.6,1.1-1.8,1.9-3.2,1.9H9.6H8.5V32.8z"/>
	<path class="st5" d="M34.7,15.8h-1.8v-0.6c0-2-1.6-3.6-3.6-3.6h-7.5v1v0.1h7.5c1.4,0,2.5,1.1,2.5,2.5v0.6h-10l0,0v1v0.1l0,0h11.1
		l0,0h1.8c1.9,0,3.5,1.6,3.5,3.5v12.1c0,1.9-1.5,3.5-3.5,3.5H13c-0.4,0-0.8-0.1-1.2-0.2h-2c0.8,0.8,2,1.3,3.2,1.3h21.6
		c2.5,0,4.6-2,4.6-4.6V20.3C39.2,17.8,37.2,15.8,34.7,15.8z"/>
	<path class="st5" d="M30.9,26.4c0-3.9-3.2-7.1-7.1-7.1c-0.7,0-1.4,0.1-2.1,0.3v1.2c0.7-0.2,1.4-0.4,2.1-0.4c3.3,0,6,2.7,6,6
		s-2.7,6-6,6c-0.9,0-1.8-0.2-2.6-0.6c-0.1,0.3-0.3,0.7-0.5,1c1,0.5,2,0.8,3.2,0.8C27.8,33.4,30.9,30.3,30.9,26.4z"/>
	<path class="st5" d="M27.8,26.4c0-2.2-1.8-3.9-3.9-3.9c-0.8,0-1.5,0.2-2.1,0.6v1.4c0.5-0.6,1.3-0.9,2.1-0.9c1.6,0,2.8,1.3,2.8,2.8
		c0,1.6-1.3,2.8-2.8,2.8c-0.8,0-1.6-0.4-2.1-0.9v0.8c0,0.2,0,0.4,0,0.6c0.6,0.4,1.3,0.6,2.1,0.6C26,30.3,27.8,28.5,27.8,26.4z"/>
	<path class="st5" d="M35,20.5c0.3,0,0.6-0.2,0.6-0.6s-0.2-0.6-0.6-0.6h-1.8c-0.3,0-0.6,0.3-0.6,0.6s0.2,0.6,0.6,0.6H35z"/>
</g>
<g id="레이어_10" class="st0">
	<g class="st1">
		<path class="st4" d="M28.6,26.3c0.4,0,0.7-0.1,0.9-0.2c0.1-0.1,0.2-0.2,0.3-0.3c0.2-0.4,0.2-1-0.2-1.6c-0.1-0.2-0.3-0.4-0.5-0.6
			s-0.4-0.4-0.7-0.6c0.3-0.3,0.4-0.8,0.4-1.2c0-1-0.8-1.9-1.9-1.9c-1,0-1.9,0.8-1.9,1.9c0,0.5,0.2,0.9,0.5,1.2
			c-0.2,0.1-0.5,0.3-0.6,0.6c-0.2,0.2-0.3,0.4-0.4,0.6s-0.2,0.4-0.3,0.5c-0.2,0.4-0.1,0.8,0,1.1c0.2,0.4,0.6,0.6,1.2,0.6h3.2V26.3z
			 M27,20.9c0.4,0,0.8,0.4,0.8,0.8s-0.4,0.8-0.8,0.8s-0.8-0.4-0.8-0.8S26.6,20.9,27,20.9z M25.4,24.6L25.4,24.6c0.4-0.7,1-1,1.6-1.1
			l0,0c0.6,0,1.2,0.4,1.6,1l0,0c0.2,0.3,0.2,0.4,0.2,0.5c0,0-0.1,0-0.2,0h-3.1c-0.1,0-0.2,0-0.2,0C25.2,25.1,25.3,24.9,25.4,24.6z"
			/>
		<path class="st4" d="M7.8,24.1v4.3H7.4C5,28.4,3,26.4,3,24V12.8h5.4h21.7h1c2,0,3.7,1.4,4.2,3.2l1.3,1.2l0,0c0-3-2.5-5.5-5.5-5.5
			h-0.4V6.3c0-3-2.5-5.5-5.5-5.5H8.4c-0.3,0-0.6,0.3-0.6,0.6v10.2H2.5c-0.3,0-0.6,0.3-0.6,0.6V24c0,3,2.5,5.5,5.5,5.5h0.4v0.4
			c0,3,2.4,5.5,5.5,5.5h5.9v-1.1h-5.9C10.9,34.3,9,32.4,9,30v-1v-4.3h10.3v-1.1H8.4C8.1,23.5,7.8,23.7,7.8,24.1z M9,1.9h16.2
			c2.4,0,4.4,2,4.4,4.4v5.3H9V1.9z"/>
		<path class="st4" d="M7.3,15.8c-0.3,0-0.6,0.3-0.6,0.6S7,17,7.3,17H13c0.3,0,0.6-0.2,0.6-0.6c0-0.3-0.3-0.6-0.6-0.6
			C13,15.8,7.3,15.8,7.3,15.8z"/>
		<path class="st4" d="M35.1,27.9L35.1,27.9h-2h-2.4h-1.1h-4.4c-0.3,0-0.5,0.2-0.5,0.5s0.2,0.5,0.5,0.5h4.4h1.1h2.8h1.6
			c0.3,0,0.5-0.2,0.5-0.5S35.4,27.9,35.1,27.9z"/>
		<path class="st4" d="M32.3,31.3h-1.8h-1.2h-4.1c-0.3,0-0.5,0.2-0.5,0.5c0,0.3,0.2,0.5,0.5,0.5h3.6H30h2.3c0.3,0,0.5-0.2,0.5-0.5
			C32.8,31.6,32.6,31.3,32.3,31.3z"/>
		<path class="st4" d="M37.4,21.7l-0.8-0.8l-1.1-1.1L33,17.6c-0.4-0.4-1-0.6-1.5-0.6H22v6.5v1.1v9.6v1.1v0.1c0,2.1,1.7,3.8,3.8,3.8
			h8.5c2.1,0,3.8-1.7,3.8-3.8V23.3C38.1,22.7,37.9,22.1,37.4,21.7z M37,35.5c0,1.5-1.2,2.7-2.7,2.7h-8.5c-1.5,0-2.7-1.2-2.7-2.7
			v-0.1v-1.1v-9.6v-1.1v-5.4h8.4c0.3,0,0.6,0.1,0.8,0.3l3.1,3l1.1,1.1l0.1,0.1c0.2,0.2,0.3,0.5,0.3,0.8v12H37z"/>
	</g>
</g>
<g id="레이어_11" class="st0">
	<path class="st3" d="M39.5,25.8L39.5,25.8V9.2c0-1.4-1.1-2.6-2.4-2.9v1.2c0.7,0.2,1.3,0.9,1.3,1.7v16H1.7v-16
		c0-0.8,0.5-1.5,1.3-1.7V6.3C1.6,6.5,0.5,7.7,0.5,9.2v19.6c0,1.6,1.3,2.9,2.9,2.9h12.2v2.5h-1.3c-1.3,0-2.4,1.1-2.4,2.4v1.6
		c0,0.7,0.5,1.2,1.2,1.2H27c0.7,0,1.2-0.5,1.2-1.2v-1.6c0-1.3-1.1-2.4-2.4-2.4h-1.3v-2.5h12.2c1.6,0,2.9-1.3,2.9-2.9v-3
		C39.5,25.8,39.5,25.8,39.5,25.8z M27,36.6v1.6l0,0H13.1v-1.6c0-0.7,0.6-1.3,1.3-1.3h1.9h7.6h1.9C26.4,35.3,27,35.9,27,36.6z
		 M23.2,34.1h-6.4v-2.5h6.4V34.1z M36.6,30.5H23.8h-7.6H3.4c-1,0-1.7-0.8-1.7-1.7v-2.3h36.7v2.3C38.3,29.7,37.6,30.5,36.6,30.5z"/>
	<path class="st3" d="M23.2,27.8h-6.4c-0.3,0-0.6,0.3-0.6,0.6c0,0.3,0.3,0.6,0.6,0.6h6.4c0.3,0,0.6-0.3,0.6-0.6
		C23.8,28.1,23.5,27.8,23.2,27.8z"/>
	<path class="st3" d="M7.6,21.6h24.9c1,0,1.9-0.8,1.9-1.9v-9.2v-3V6.3V4.5V2.7c0-1-0.8-1.9-1.9-1.9H7.6c-1,0-1.9,0.8-1.9,1.9v1.9
		v1.8v1.2v3.1v9.2C5.7,20.8,6.5,21.6,7.6,21.6z M7.6,2h24.9c0.4,0,0.7,0.3,0.7,0.7v1.6H6.9V2.7C6.9,2.3,7.2,2,7.6,2z M6.9,7.5V6.3
		V5.5h26.3v0.8v1.2v3.1v9.2c0,0.4-0.3,0.7-0.7,0.7H7.6c-0.4,0-0.7-0.3-0.7-0.7v-9.2V7.5L6.9,7.5z"/>
	<path class="st3" d="M8.9,12.5h10.7c0.5,0,1-0.4,1-1v-0.9v-3V7.5c0-0.5-0.5-0.9-1-0.9H8.9C8.4,6.6,8,7,7.9,7.5v0.1v3v0.9
		C7.9,12,8.4,12.5,8.9,12.5z M9.1,7.7h10.3v2.8v0.7H9.1v-0.7V7.7z"/>
	<path class="st3" d="M22.7,17h2h3.8H31c0.6,0,1.1-0.5,1.1-1.1v-5.4V7.7c0-0.1,0-0.1,0-0.2C32,7,31.5,6.6,31,6.6h-8.3
		c-0.5,0-1,0.4-1.1,0.9c0,0.1,0,0.1,0,0.2v2.9V16C21.6,16.5,22.1,17,22.7,17z M24.8,15.8c-0.2,0-0.3,0-0.4,0l0,0c0,0,0-0.3,0.3-0.7
		c0.5-0.8,1.2-1.3,2-1.3l0,0c0.8,0,1.5,0.5,2,1.3c0.3,0.5,0.3,0.7,0.3,0.7s-0.1,0.1-0.4,0.1h-3.8V15.8z M25.6,11.6c0-0.6,0.5-1,1-1
		c0.6,0,1,0.5,1,1c0,0.6-0.5,1-1,1l0,0C26.1,12.6,25.6,12.1,25.6,11.6z M22.8,7.7h8.1v2.8v5.3h-0.8c0-0.4-0.1-0.8-0.4-1.4
		c-0.4-0.6-0.9-1.1-1.4-1.4c0.4-0.4,0.6-0.9,0.6-1.5c0-0.4-0.1-0.7-0.3-1c-0.4-0.7-1.1-1.2-1.9-1.2s-1.6,0.5-2,1.2
		c-0.2,0.3-0.3,0.7-0.3,1c0,0.6,0.2,1.1,0.6,1.5c-0.5,0.3-1,0.8-1.4,1.4c-0.3,0.5-0.5,1-0.4,1.4h-0.4v-5.3
		C22.8,10.5,22.8,7.7,22.8,7.7z"/>
	<path class="st3" d="M19.6,15.8H8.9c-0.3,0-0.6,0.3-0.6,0.6S8.6,17,8.9,17h10.7c0.3,0,0.6-0.3,0.6-0.6C20.2,16.1,20,15.8,19.6,15.8
		z"/>
	<path class="st3" d="M19.6,18.1H8.9c-0.3,0-0.6,0.3-0.6,0.6c0,0.3,0.3,0.6,0.6,0.6h10.7c0.3,0,0.6-0.3,0.6-0.6
		C20.2,18.4,20,18.1,19.6,18.1z"/>
	<path class="st3" d="M16,14.7c0.3,0,0.6-0.3,0.6-0.6s-0.3-0.6-0.6-0.6h-3c-0.3,0-0.6,0.3-0.6,0.6s0.3,0.6,0.6,0.6H16z"/>
	<path class="st3" d="M19.6,13.5h-1.9c-0.3,0-0.6,0.3-0.6,0.6s0.3,0.6,0.6,0.6h1.9c0.3,0,0.6-0.3,0.6-0.6S20,13.5,19.6,13.5z"/>
</g>
<g id="레이어_12" class="st0">
	<g class="st1">
		<path class="st2" d="M39.4,9.3L39.4,9.3V4.9c0-1.4-1.2-2.6-2.6-2.6H3.2c-1.4,0-2.6,1.2-2.6,2.6v24.6c0,1.4,1.2,2.6,2.6,2.6h14.1
			L17,30.9H3.2c-0.8,0-1.5-0.7-1.5-1.5V9.9h36.5v19.6c0,0.8-0.7,1.5-1.5,1.5h-3.1l-1,1.2h4.1c1.4,0,2.6-1.2,2.6-2.6V9.3H39.4z
			 M1.8,8.7V4.9c0-0.8,0.7-1.5,1.5-1.5h33.5c0.8,0,1.5,0.7,1.5,1.5v3.9H1.8V8.7z"/>
		<path class="st2" d="M5.3,4.4C4.4,4.4,3.6,5.1,3.6,6s0.7,1.6,1.6,1.6S6.8,6.9,6.8,6C6.9,5.1,6.2,4.4,5.3,4.4z M5.3,6.5
			C5,6.5,4.8,6.3,4.8,6S5,5.5,5.3,5.5S5.8,5.7,5.8,6C5.7,6.3,5.5,6.5,5.3,6.5z"/>
		<path class="st2" d="M9.4,4.4C8.5,4.4,7.8,5.1,7.8,6s0.7,1.6,1.6,1.6C10.3,7.7,11,6.9,11,6S10.3,4.4,9.4,4.4z M9.4,6.5
			C9.1,6.5,8.9,6.3,8.9,6s0.2-0.5,0.5-0.5S9.9,5.7,9.9,6S9.7,6.5,9.4,6.5z"/>
		<path class="st2" d="M13.5,4.4c-0.9,0-1.6,0.7-1.6,1.6s0.7,1.6,1.6,1.6c0.9,0,1.6-0.7,1.6-1.6C15.2,5.1,14.4,4.4,13.5,4.4z
			 M13.5,6.5C13.3,6.5,13,6.3,13,6s0.2-0.5,0.5-0.5C13.8,5.6,14,5.8,14,6C14,6.3,13.8,6.5,13.5,6.5z"/>
		<path class="st2" d="M29.4,21v-5c0-1.5-1.2-2.7-2.7-2.7H6.9c-1.5,0-2.7,1.2-2.7,2.7v5c0,1.5,1.2,2.7,2.7,2.7h19.8
			C28.1,23.7,29.4,22.5,29.4,21z M5.3,21v-5c0-0.9,0.7-1.6,1.6-1.6h19.8c0.9,0,1.6,0.7,1.6,1.6v5c0,0.9-0.7,1.6-1.6,1.6H6.9
			C6,22.6,5.3,21.9,5.3,21z"/>
		<path class="st2" d="M33.5,20.1l3.1-3.1c0.2-0.2,0.2-0.6,0-0.8c-0.2-0.2-0.6-0.2-0.8,0l-2.7,2.7L32.2,18c-0.2-0.2-0.6-0.2-0.8,0
			c-0.2,0.2-0.2,0.6,0,0.8l1.3,1.3c0.1,0.1,0.3,0.2,0.4,0.2S33.4,20.2,33.5,20.1z"/>
		<path class="st2" d="M13,17.3c-0.2-0.3-0.5-0.4-0.8-0.2l-1,0.6v-1.2c0-0.3-0.3-0.6-0.6-0.6S10,16.2,10,16.5v1.2l-1-0.6
			c-0.3-0.2-0.6-0.1-0.8,0.2c-0.2,0.3-0.1,0.6,0.2,0.8l1,0.6l-1,0.6c-0.3,0.2-0.4,0.5-0.2,0.8c0.1,0.2,0.3,0.3,0.5,0.3
			c0.1,0,0.2,0,0.3-0.1l1-0.6v1.2c0,0.3,0.3,0.6,0.6,0.6s0.6-0.3,0.6-0.6v-1.2l1,0.6c0.1,0.1,0.2,0.1,0.3,0.1c0.2,0,0.4-0.1,0.5-0.3
			c0.2-0.3,0.1-0.6-0.2-0.8l-1-0.6l1-0.6C13.1,17.9,13.2,17.5,13,17.3z"/>
		<path class="st2" d="M19.1,17.3C19,17,18.6,16.9,18.3,17l-1,0.6v-1.2c0-0.3-0.3-0.6-0.6-0.6c-0.3,0-0.6,0.3-0.6,0.6v1.2l-1-0.6
			c-0.3-0.2-0.6-0.1-0.8,0.2c-0.2,0.3-0.1,0.6,0.2,0.8l1,0.6l-1,0.6c-0.3,0.2-0.4,0.5-0.2,0.8c0.1,0.2,0.3,0.3,0.5,0.3
			c0.1,0,0.2,0,0.3-0.1l1-0.6v1.2c0,0.3,0.3,0.6,0.6,0.6c0.3,0,0.6-0.3,0.6-0.6v-1.2l1,0.6c0.1,0.1,0.2,0.1,0.3,0.1
			c0.2,0,0.4-0.1,0.5-0.3c0.2-0.3,0.1-0.6-0.2-0.8l-1-0.6l1-0.6C19.2,17.9,19.3,17.5,19.1,17.3z"/>
		<path class="st2" d="M25.2,17.3C25,17,24.7,16.9,24.4,17l-1,0.6v-1.2c0-0.3-0.3-0.6-0.6-0.6c-0.3,0-0.6,0.3-0.6,0.6v1.2l-1-0.6
			c-0.3-0.2-0.6-0.1-0.8,0.2c-0.2,0.3-0.1,0.6,0.2,0.8l1,0.6l-1,0.6c-0.3,0.2-0.4,0.5-0.2,0.8c0.1,0.2,0.3,0.3,0.5,0.3
			c0.1,0,0.2,0,0.3-0.1l1-0.6v1.2c0,0.3,0.3,0.6,0.6,0.6c0.3,0,0.6-0.3,0.6-0.6v-1.2l1,0.6c0.1,0.1,0.2,0.1,0.3,0.1
			c0.2,0,0.4-0.1,0.5-0.3c0.2-0.3,0.1-0.6-0.2-0.8l-1-0.6l1-0.6C25.3,17.9,25.4,17.5,25.2,17.3z"/>
		<path class="st2" d="M28.4,32.4l0.3-0.3l1.2-1.2l0.2-0.2c0.1-0.1,0.2-0.3,0.2-0.5s-0.2-0.4-0.4-0.4l-11-4.3
			c-0.2-0.1-0.5,0-0.6,0.1c-0.2,0.2-0.2,0.4-0.1,0.6l1.8,4.7l0.5,1.2l2,5.2c0.1,0.2,0.2,0.3,0.4,0.4c0.2,0,0.4,0,0.5-0.2l1.6-1.6
			l1.9,1.9c0.1,0.1,0.3,0.2,0.4,0.2c0.2,0,0.3-0.1,0.4-0.2l2.6-2.6c0.2-0.2,0.2-0.6,0-0.8L28.4,32.4z M27.3,36.5l-1.9-1.9
			c-0.1-0.1-0.3-0.2-0.4-0.2s-0.3,0.1-0.4,0.2L23.1,36l-1.5-3.9l-0.5-1.2L19.6,27l9,3.5l-0.4,0.4l-1,1.1l-0.1,0.1
			c-0.1,0-0.1,0.2-0.1,0.3s0.1,0.3,0.2,0.4l1.9,1.9L27.3,36.5z"/>
	</g>
</g>
<g id="레이어_13" class="st0">
	<path class="st3" d="M37.6,7.7h-3.4h-6.5V6.2c0-1.2-0.5-2.3-1.4-3.2c-1.3-1.3-3.1-2-5.2-2h-8.2c-0.3,0-0.6,0.3-0.6,0.6v6.2H5.9H2.4
		c-0.3,0-0.6,0.3-0.6,0.6S2.1,9,2.4,9h2.9l1.9,24c0,3.2,2.3,5.8,5.4,6.2c0.1,0,0.2,0.1,0.3,0.1H13c0.2,0,0.3,0,0.5,0h12.9
		c0.2,0,0.3,0,0.5,0H27c0.1,0,0.2,0,0.3-0.1c3.1-0.4,5.5-3.1,5.5-6.2l1.9-24h2.9c0.3,0,0.6-0.3,0.6-0.6C38.1,7.9,37.9,7.7,37.6,7.7z
		 M13.5,2.1h7.6c1.7,0,3.3,0.6,4.3,1.7c0.7,0.7,1.1,1.5,1.1,2.4v1.5h-0.1c-4.7,0-11.1,0-12.9,0C13.5,7.7,13.5,2.1,13.5,2.1z
		 M8.4,32.7L6.5,8.8h5.8v29C10.1,37.2,8.4,35.2,8.4,32.7z M13.5,37.9V8.8h5.9v29.1H13.5L13.5,37.9z M20.6,37.9V8.8h5.9v29.1l0,0
		H20.6z M31.6,32.8c0,2.4-1.7,4.5-4,5v-29h5.9L31.6,32.8z"/>
</g>
<g id="레이어_14" class="st0">
	<path class="st3" d="M38.7,34.2l-6.9-6.9c-0.6-0.6-1.5-0.7-2.1-0.2c-0.1,0.1-0.2,0.1-0.3,0.2l-0.6,0.6l-1.2-1.2
		c0.2-0.2,0.4-0.4,0.5-0.6c0.2-0.3,0.5-0.6,0.7-0.9s0.4-0.7,0.6-1c1.4-2.4,2.2-5.1,2.2-7.9c0-8.5-6.9-15.4-15.4-15.4
		S0.8,7.7,0.8,16.2c0,2.8,0.8,5.5,2.2,7.9c2.8,4.6,7.9,7.5,13.3,7.5c3.9,0,7.7-1.5,10.5-4.1l1.2,1.2l-0.6,0.6
		c-0.7,0.7-0.7,1.8,0,2.4l6.9,6.9c0.3,0.3,0.8,0.5,1.2,0.5s0.9-0.2,1.2-0.5l2.1-2.1C39.4,36,39.4,34.9,38.7,34.2z M16.2,1.9
		c7.9,0,14.3,6.4,14.3,14.3c0,2.3-0.6,4.5-1.6,6.6c-2.7-3.5-6.1-5.8-9.9-6.6c1.7-1,2.9-2.8,2.9-5c0-3.2-2.6-5.7-5.7-5.7
		c-3.2,0-5.7,2.6-5.7,5.7c0,2.1,1.2,4,2.9,5c-3.7,0.8-7.2,3.1-9.8,6.6c-1-2-1.6-4.3-1.6-6.6C1.9,8.3,8.3,1.9,16.2,1.9z M16.2,15.8
		c-2.5,0-4.6-2.1-4.6-4.6s2.1-4.6,4.6-4.6s4.6,2.1,4.6,4.6S18.7,15.8,16.2,15.8z M16.2,30.5c-0.3,0-0.6,0-0.9,0c-0.1,0-0.2,0-0.3,0
		c-0.2,0-0.4,0-0.6-0.1c-0.1,0-0.2,0-0.4-0.1c-0.2,0-0.4-0.1-0.5-0.1s-0.3-0.1-0.4-0.1c-0.2,0-0.3-0.1-0.5-0.1
		c-0.1,0-0.3-0.1-0.4-0.1c-0.2,0-0.3-0.1-0.5-0.1c-0.1,0-0.3-0.1-0.4-0.1c-0.2-0.1-0.3-0.1-0.5-0.2c-0.1-0.1-0.3-0.1-0.4-0.2
		c-0.1-0.1-0.3-0.1-0.4-0.2C9.9,29,9.8,29,9.6,28.9c-0.1-0.1-0.3-0.1-0.4-0.2c-0.1-0.1-0.2-0.1-0.4-0.2c-0.1-0.1-0.3-0.2-0.4-0.2
		C8.3,28.1,8.2,28,8.1,28c-0.1-0.1-0.3-0.2-0.4-0.3c-0.1-0.1-0.2-0.2-0.3-0.3c-0.1-0.1-0.2-0.2-0.4-0.3c-0.1-0.1-0.2-0.2-0.3-0.3
		c-0.1-0.1-0.2-0.2-0.3-0.3c-0.1-0.1-0.2-0.2-0.3-0.3C6,26.1,5.9,26,5.8,25.9s-0.2-0.2-0.3-0.3c-0.1-0.1-0.2-0.2-0.3-0.4
		C5,25.1,4.9,25,4.8,24.8c-0.1-0.1-0.2-0.2-0.3-0.4c-0.1-0.1-0.2-0.2-0.3-0.4c-0.1-0.1-0.1-0.2-0.2-0.2c3.1-4.3,7.5-6.8,12.1-6.8
		c4.5,0,8.9,2.5,12.1,6.8c-0.1,0.1-0.2,0.3-0.3,0.4c-0.1,0.1-0.1,0.2-0.2,0.3c-0.2,0.3-0.4,0.5-0.6,0.8
		C24.5,28.6,20.5,30.5,16.2,30.5z M37.9,35.8l-2.1,2.1c-0.2,0.2-0.6,0.2-0.8,0L28.1,31c-0.2-0.2-0.2-0.6,0-0.8l1.1-1.1l0,0l0,0
		l1.1-1.1l0.1-0.1c0.1-0.1,0.2-0.1,0.3-0.1c0.1,0,0.3,0.1,0.4,0.2l6.9,6.9C38.1,35.2,38.1,35.6,37.9,35.8z"/>
</g>
<g id="레이어_15" class="st0">
	<g class="st1">
		<path class="st4" d="M8.8,34.9c-2.5,0-4.6-2.1-4.6-4.6V1.9H18c0.2,0,0.4,0,0.7,0.1c-0.1,0.2-0.2,0.4-0.2,0.6v4.1
			c0,1.8,1.5,3.3,3.3,3.3h4.5l0,0c0.3,0,0.5-0.1,0.7-0.3c0.1,0.3,0.2,0.5,0.2,0.8V19c0.4,0,0.8-0.1,1.2-0.1v-8.5
			c0-0.9-0.4-1.7-1-2.3l-0.2-0.2l-0.1-0.1l-2.1-2l-4.7-4.5c-0.6-0.6-1.4-0.9-2.3-0.9H3.6C3.3,0.8,3,1,3,1.3v29
			c0,3.2,2.6,5.8,5.8,5.8h9.6c-0.2-0.4-0.4-0.8-0.5-1.2L8.8,34.9z M26.3,9h-4.5c-1.2,0-2.1-1-2.1-2.2V2.7l0.6,0.5L26.3,9L26.3,9z"/>
		<path class="st4" d="M9.1,9.8H15c0.3,0,0.6-0.3,0.6-0.6S15.3,8.6,15,8.6H9.1c-0.3,0-0.6,0.3-0.6,0.6C8.6,9.5,8.8,9.8,9.1,9.8z"/>
		<path class="st4" d="M22.8,15.3c0-0.3-0.3-0.6-0.6-0.6H9.1c-0.3,0-0.6,0.3-0.6,0.6s0.3,0.6,0.6,0.6h13.1
			C22.6,15.9,22.8,15.7,22.8,15.3z"/>
		<path class="st4" d="M22.4,20.9h-0.1H9.2c-0.3,0-0.6,0.3-0.6,0.6S8.8,22,9.1,22h11.7C21.3,21.6,21.8,21.2,22.4,20.9z"/>
		<path class="st4" d="M8.5,27.5c0,0.3,0.3,0.6,0.6,0.6h8.1c0.1-0.4,0.2-0.8,0.3-1.2H9.1C8.8,26.9,8.5,27.2,8.5,27.5z"/>
		<path class="st4" d="M28.4,22L28.4,22c-0.4,0-0.8,0-1.2,0.1c-2.9,0.4-5.4,2.3-6.6,4.9c-0.2,0.4-0.3,0.8-0.4,1.2
			c-0.2,0.8-0.4,1.6-0.4,2.5c0,1.6,0.4,3.1,1.2,4.3c0.2,0.4,0.5,0.8,0.8,1.2c1.6,1.9,4,3.1,6.6,3.1c4.8,0,8.6-3.9,8.6-8.6
			C37,25.9,33.1,22,28.4,22z M28.4,38.1c-2,0-3.8-0.8-5.1-2c-0.4-0.3-0.7-0.7-1-1.1c-0.9-1.2-1.4-2.7-1.4-4.3c0-0.9,0.1-1.7,0.4-2.5
			c0.1-0.4,0.3-0.8,0.5-1.2c1.1-1.9,3-3.3,5.3-3.7c0.4-0.1,0.8-0.1,1.2-0.1l0,0c4.1,0,7.5,3.4,7.5,7.5
			C35.8,34.7,32.5,38.1,28.4,38.1z"/>
		<path class="st4" d="M28.4,33.4c-0.4,0-0.8,0.3-0.8,0.8c0,0.4,0.4,0.8,0.8,0.8s0.8-0.4,0.8-0.8C29.2,33.8,28.8,33.4,28.4,33.4z"/>
		<path class="st4" d="M28.4,26.2L28.4,26.2c-0.4,0-0.8,0.3-0.8,0.8v4.6c0,0.4,0.3,0.7,0.5,0.8c0.1,0,0.2,0,0.2,0
			c0.4,0,0.8-0.3,0.8-0.8V27C29.2,26.5,28.8,26.2,28.4,26.2z"/>
	</g>
</g>
<g id="레이어_16" class="st0">
	<g class="st1">
		<path class="st4" d="M32.7,9.1l-0.3-0.3l-7.3-6.9l0,0L25,1.8c-0.7-0.6-1.5-1-2.4-1H6.8c-0.3,0-0.6,0.3-0.6,0.6V33
			c0,3.4,2.8,6.3,6.3,6.3h15.1c3.4,0,6.3-2.8,6.3-6.3V11.6C33.8,10.6,33.4,9.7,32.7,9.1z M31.6,9.7L31.6,9.7h-5
			c-1.3,0-2.4-1.1-2.4-2.4V2.8h0.1L31.6,9.7C31.6,9.6,31.7,9.6,31.6,9.7z M32.6,33c0,2.8-2.3,5.1-5.1,5.1h-15
			c-2.8,0-5.1-2.3-5.1-5.1V1.9h15.2c0.3,0,0.6,0.1,0.8,0.1c-0.1,0.2-0.2,0.4-0.2,0.7v4.5c0,2,1.6,3.6,3.5,3.6h4.9l0,0
			c0.3,0,0.6-0.1,0.8-0.3c0.2,0.3,0.2,0.7,0.2,1V33z"/>
		<path class="st4" d="M12.9,10.6h6.4c0.3,0,0.6-0.3,0.6-0.6s-0.3-0.6-0.6-0.6h-6.4c-0.3,0-0.6,0.3-0.6,0.6
			C12.3,10.3,12.5,10.6,12.9,10.6z"/>
		<path class="st4" d="M27.2,16.1H12.9c-0.3,0-0.6,0.3-0.6,0.6s0.3,0.6,0.6,0.6h14.3c0.3,0,0.6-0.3,0.6-0.6S27.5,16.1,27.2,16.1z"/>
		<path class="st4" d="M27.2,22.7H12.9c-0.3,0-0.6,0.3-0.6,0.6c0,0.3,0.3,0.6,0.6,0.6h14.3c0.3,0,0.6-0.3,0.6-0.6
			C27.8,23,27.5,22.7,27.2,22.7z"/>
		<path class="st4" d="M27.2,29.4H12.9c-0.3,0-0.6,0.3-0.6,0.6c0,0.3,0.3,0.6,0.6,0.6h14.3c0.3,0,0.6-0.3,0.6-0.6
			C27.8,29.6,27.5,29.4,27.2,29.4z"/>
	</g>
</g>
<g id="레이어_17" class="st0">
	<g class="st1">
		<path class="st4" d="M34.3,8.4H19l-3.9-4.1c-0.1-0.1-0.3-0.2-0.4-0.2h-13c-0.3,0-0.6,0.3-0.6,0.6v26.6c0,2.5,2,4.5,4.5,4.5h28.7
			c2.5,0,4.5-2,4.5-4.5V12.9C38.9,10.5,36.8,8.4,34.3,8.4z M37.7,31.3c0,1.9-1.5,3.4-3.4,3.4h-14v-2.4h2c0.3,0,0.6-0.3,0.6-0.6
			c0-0.3-0.3-0.6-0.6-0.6h-2V28h2c0.3,0,0.6-0.3,0.6-0.6c0-0.3-0.3-0.6-0.6-0.6h-2v-3.2h2c0.3,0,0.6-0.3,0.6-0.6s-0.3-0.6-0.6-0.6
			h-2v-3.2h2c0.3,0,0.6-0.3,0.6-0.6S22.6,18,22.3,18h-5.1c-0.3,0-0.6,0.3-0.6,0.6s0.3,0.6,0.6,0.6h2v3.2h-2c-0.3,0-0.6,0.3-0.6,0.6
			s0.3,0.6,0.6,0.6h2v3.2h-2c-0.3,0-0.6,0.3-0.6,0.6c0,0.3,0.3,0.6,0.6,0.6h2v3.2h-2c-0.3,0-0.6,0.3-0.6,0.6c0,0.3,0.3,0.6,0.6,0.6
			h2v2.4H5.7c-1.9,0-3.4-1.5-3.4-3.4V5.3h12.2l3.9,4.1c0.1,0.1,0.3,0.2,0.4,0.2h15.6c1.9,0,3.4,1.5,3.4,3.4L37.7,31.3L37.7,31.3z"/>
	</g>
</g>
<g id="레이어_18" class="st0">
	<g class="st1">
		<path class="st4" d="M13.6,19.7c-1,0-1.8,0.8-1.8,1.8s0.8,1.8,1.8,1.8s1.8-0.8,1.8-1.8S14.5,19.7,13.6,19.7z"/>
		<path class="st4" d="M20,23.2c1,0,1.8-0.8,1.8-1.8S21,19.6,20,19.6s-1.8,0.8-1.8,1.8S19,23.2,20,23.2z"/>
		<path class="st4" d="M26.4,23.2c1,0,1.8-0.8,1.8-1.8s-0.8-1.8-1.8-1.8s-1.8,0.8-1.8,1.8C24.7,22.4,25.5,23.2,26.4,23.2z"/>
		<path class="st4" d="M34.4,8.4H19l-3.9-4.1c-0.1-0.1-0.3-0.2-0.4-0.2h-13c-0.3,0-0.6,0.3-0.6,0.6v26.6c0,2.5,2,4.5,4.5,4.5h28.7
			c2.5,0,4.5-2,4.5-4.5V12.9C38.9,10.4,36.8,8.4,34.4,8.4z M37.7,31.3c0,1.9-1.5,3.4-3.4,3.4H5.6c-1.9,0-3.4-1.5-3.4-3.4v-26h12.2
			l3.9,4.1c0.1,0.1,0.3,0.2,0.4,0.2h15.6c1.9,0,3.4,1.5,3.4,3.4V31.3L37.7,31.3z"/>
	</g>
</g>
<g id="레이어_19" class="st0">
	<path class="st5" d="M33.3,0.8h-32C1,0.8,0.8,1.1,0.8,1.4v32c0,3.3,2.7,5.9,5.9,5.9h26.6c3.3,0,5.9-2.7,5.9-5.9V6.7
		C39.2,3.5,36.6,0.8,33.3,0.8z M6.7,38.1c-2.6,0-4.8-2.1-4.8-4.8v-6.5l8-11.9c0.1-0.1,0.2-0.2,0.4-0.2s0.3,0.1,0.4,0.2l7.7,10.6
		c0.4,0.5,0.9,0.8,1.5,0.7c0.6,0,1.1-0.3,1.5-0.9l2.3-3.7c0.1-0.2,0.3-0.2,0.4-0.3c0.2,0,0.3,0.1,0.5,0.2L36.1,37
		c-0.8,0.6-1.7,0.9-2.8,0.9L6.7,38.1L6.7,38.1z M38.1,33.3c0,1.2-0.4,2.3-1.1,3.1L25.5,21c-0.3-0.4-0.9-0.7-1.4-0.7
		c-0.6,0-1.1,0.3-1.4,0.8l-2.3,3.7c-0.1,0.2-0.3,0.3-0.5,0.3s-0.4-0.1-0.6-0.3l-7.7-10.6c-0.3-0.4-0.8-0.7-1.3-0.7s-1,0.3-1.3,0.7
		L2,24.7V2h31.4c2.6,0,4.8,2.1,4.8,4.8L38.1,33.3L38.1,33.3z"/>
	<path class="st5" d="M28.8,6.6c-2.6,0-4.7,2.1-4.7,4.7s2.1,4.7,4.7,4.7s4.7-2.1,4.7-4.7S31.4,6.6,28.8,6.6z M28.8,14.8
		c-1.9,0-3.5-1.6-3.5-3.5s1.6-3.5,3.5-3.5s3.5,1.6,3.5,3.5S30.7,14.8,28.8,14.8z"/>
</g>
<g>
	<path class="st6" d="M16.83,23.17c3.064,3.064,8.031,3.064,11.094,0l7.925-7.925c3.064-3.064,3.064-8.031,0-11.094
		c-3.064-3.064-8.031-3.064-11.094,0l-3.962,3.962"/>
	<path class="st6" d="M23.17,16.83c-3.064-3.064-8.031-3.064-11.094,0l-7.925,7.925c-3.064,3.064-3.064,8.031,0,11.094
		c3.064,3.064,8.031,3.064,11.094,0l3.962-3.962"/>
</g>
</svg>
